<svg width="33" height="32" viewBox="0 0 33 32" fill="none" xmlns="http://www.w3.org/2000/svg">
<path d="M12.6028 20.4107C12.6325 20.3672 12.6636 20.3245 12.696 20.2829C12.8444 20.0949 13.7663 20.156 14.0494 20.1558L16.1059 20.1559L18.9619 20.1554C19.2312 20.1555 20.4792 20.119 20.5924 20.2125L20.6472 20.2162C20.8826 20.5376 20.9167 20.6271 21.0628 20.9972C21.3574 21.4612 21.6395 21.9673 21.9405 22.4207C22.7532 23.6373 23.6459 24.7983 24.6128 25.8963C24.6759 25.9691 24.7363 26.0453 24.7962 26.1208C25.2827 26.7341 25.8799 27.3158 26.4971 27.7974C26.7268 27.9809 26.9605 28.2678 27.1674 28.4194C27.5133 28.6732 27.9396 29.0576 28.2772 29.2898C28.3905 29.4184 28.4651 29.5205 28.4193 29.7021C28.2325 29.7832 27.0985 29.7543 26.7868 29.7457C25.8365 29.7194 24.7274 29.8175 23.7947 29.7018C23.4495 29.659 22.8757 29.2448 22.5723 29.0945C21.6655 28.6452 19.8849 28.0122 18.8923 27.9326L18.3271 27.8144C18.1971 27.8139 18.0372 27.798 17.9052 27.7883C17.8999 28.0769 17.967 29.5897 17.8564 29.7082C17.4383 29.8223 15.9017 29.7651 15.425 29.6658C15.2037 29.6196 15.2706 28.0751 15.3412 27.8432C14.7142 27.7154 13.0729 28.1719 12.3989 28.3848C12.1794 28.4542 11.9698 28.5536 11.7502 28.6229C11.5389 28.6897 11.2886 28.709 11.0898 28.8003C10.5169 29.0633 10.0533 29.5274 9.43018 29.7061C9.104 29.7996 5.467 29.7834 5.07222 29.6961C4.95911 29.671 4.8631 29.6487 4.79834 29.5457C4.81104 29.4168 5.44066 28.9455 5.58727 28.8198C6.58394 27.965 7.53423 27.0653 8.44412 26.116C8.75513 25.7914 8.92746 25.4161 9.33114 25.1497C9.38941 25.1113 9.51398 24.7832 9.58112 24.7158C10.2918 24.0058 10.7646 23.1476 11.3452 22.3428C11.5977 21.9736 11.7499 21.584 12.0503 21.1753C12.1148 21.0135 12.4485 20.44 12.5484 20.2815C12.5659 20.3265 12.58 20.3681 12.6028 20.4107ZM17.8996 24.6113C17.9065 24.9517 17.9717 25.1624 18.358 25.1862C18.7018 25.1493 19.0324 25.1401 19.361 25.2537C19.5216 25.3507 19.5818 25.3531 19.7711 25.3615C19.8664 25.352 20.6101 25.4677 20.7515 25.4963C20.8163 25.5033 20.825 25.4987 20.8896 25.4836L20.9005 25.4314C20.8268 25.3265 20.7491 25.2567 20.6579 25.1685C20.4441 25.0351 19.6379 23.5817 19.4192 23.2881C19.1243 22.892 19.1219 22.6216 18.5768 22.4124C18.3194 22.3513 17.9162 22.3075 17.8894 22.6699C17.9098 23.0689 17.94 24.227 17.8996 24.6113ZM13.2172 25.3993C13.38 25.3656 13.5073 25.3745 13.6628 25.3473C13.8919 25.3071 14.2178 25.1908 14.4412 25.1745C14.7121 25.1547 15.024 25.1969 15.3017 25.1737L15.3287 25.1713C15.2949 24.7464 15.2162 22.6331 15.3634 22.3736C14.99 22.4352 14.4587 22.2487 14.2959 22.5717C14.0085 23.1416 13.6812 23.6206 13.3236 24.1425C13.0057 24.6064 12.9662 24.7271 12.5674 25.1396C12.5053 25.2832 12.4045 25.4948 12.373 25.6417L12.3935 25.6701C12.7705 25.3948 12.8356 25.5327 13.2172 25.3993Z" fill="#D52F3E"/>
<path d="M15.3416 27.8432C15.4053 27.8265 15.4804 27.7093 15.5444 27.6699C15.6724 27.5911 15.9569 27.5735 16.1082 27.5552C16.3158 27.53 17.6571 27.4992 17.7676 27.6568C17.8121 27.7203 17.7729 27.7649 17.8504 27.8258L17.9056 27.7883C17.9002 28.0769 17.9674 29.5896 17.8568 29.7081C17.4387 29.8222 15.9021 29.7651 15.4253 29.6657C15.2041 29.6196 15.271 28.075 15.3416 27.8432Z" fill="#B4202F"/>
<path d="M28.1535 29.5111C27.8525 29.3057 27.7177 28.9835 27.3509 28.8007C27.1314 28.6913 26.3765 28.0846 26.4166 27.8458L26.4972 27.7974C26.7269 27.9809 26.9607 28.2677 27.1675 28.4194C27.5134 28.6731 27.9397 29.0575 28.2773 29.2898C28.2438 29.3459 28.1726 29.4566 28.1535 29.5111Z" fill="#D44859"/>
<path d="M18.3271 27.8145C18.4928 27.5866 18.8077 27.5969 19.0461 27.7071L19.0921 27.7705C19.0594 27.8858 19.0098 27.8967 18.8923 27.9326L18.3271 27.8145Z" fill="#D44859"/>
<path d="M12.5489 20.2812C12.5664 20.3263 12.5804 20.3679 12.6032 20.4105L12.5873 20.4369C12.4849 20.6089 12.307 21.1719 12.2173 21.2345C12.184 21.1573 12.2447 21.0888 12.2241 21.0611C12.1835 21.106 12.1361 21.142 12.1018 21.1863L12.0508 21.1751C12.1152 21.0133 12.4489 20.4397 12.5489 20.2812Z" fill="#D44859"/>
<path d="M20.5926 20.2124L20.6474 20.2161C20.8828 20.5376 20.9168 20.627 21.063 20.9972C20.8423 20.8391 20.4984 20.519 20.5926 20.2124Z" fill="#D44859"/>
<path d="M28.2772 29.2896C28.3905 29.4182 28.465 29.5202 28.4193 29.7019C28.3621 29.6547 28.2239 29.564 28.1533 29.5108C28.1725 29.4564 28.2436 29.3457 28.2772 29.2896Z" fill="#DC4757"/>
<path d="M15.3635 22.3736C15.3988 22.3633 15.5003 22.2692 15.5046 22.2689C16.1774 22.2198 17.0839 22.2251 17.7339 22.2303C17.8035 22.3904 17.8557 22.4961 17.8895 22.6699C17.91 23.069 17.9401 24.227 17.8998 24.6113C17.9067 24.9518 17.9719 25.1624 18.3582 25.1862L18.3746 25.2167C18.2608 25.336 17.9464 25.3324 17.7911 25.3141L17.739 25.2626C17.3694 25.1147 15.5706 25.2837 15.4691 25.2292L15.3289 25.1714C15.295 24.7465 15.2163 22.6332 15.3635 22.3736Z" fill="#B4202F"/>
<path d="M17.7393 25.2626C17.7943 24.9168 17.7662 24.9275 17.9 24.6113C17.9069 24.9518 17.9721 25.1625 18.3584 25.1862L18.3748 25.2167C18.2611 25.336 17.9466 25.3324 17.7913 25.3141L17.7393 25.2626Z" fill="#D44859"/>
<path d="M11.9927 25.5217L12.2205 25.3615L12.2588 25.3682L12.2772 25.3284L12.2346 25.3554L12.2861 25.3307C12.1586 25.4839 11.959 25.6833 12.0549 25.8904C12.1427 25.8916 12.1523 25.888 12.2258 25.8396C12.2891 25.7358 12.2503 25.6421 12.2551 25.5027C12.3068 25.5247 12.2952 25.5254 12.3344 25.5771C12.3704 25.4547 12.4324 25.1784 12.5678 25.1396C12.5057 25.2833 12.4049 25.4949 12.3734 25.6418L12.3939 25.6702C12.7709 25.3949 12.836 25.5328 13.2176 25.3993C13.3309 25.4136 13.4465 25.4125 13.5131 25.5203C13.4431 25.5999 12.1129 25.9515 12.0133 25.9263C11.97 25.8087 11.9877 25.6503 11.9927 25.5217Z" fill="#D44859"/>
<path d="M21.0184 25.4232C20.9316 25.2286 20.9046 25.091 20.7285 24.9854L20.7283 24.9512C20.9798 25.0601 20.9578 25.3009 21.0926 25.4756C21.1723 25.5648 21.3473 25.7498 21.4027 25.8441L21.3854 25.8846C21.2807 25.889 20.6394 25.8349 20.5582 25.7961L20.4846 25.6825C20.4445 25.6566 20.3287 25.6562 20.2744 25.6524C20.4556 25.5051 20.5216 25.5135 20.7517 25.4963C20.8166 25.5033 20.8252 25.4987 20.8899 25.4836L20.9008 25.4314C20.8271 25.3264 20.7494 25.2567 20.6582 25.1685L20.6754 25.0952C20.7865 25.1964 20.9135 25.338 21.0184 25.4232Z" fill="#DD6976"/>
<path d="M21.0184 25.4232C20.9316 25.2286 20.9046 25.091 20.7285 24.9854L20.7283 24.9512C20.9798 25.0601 20.9578 25.3009 21.0926 25.4756L21.022 25.4954C21.0243 25.5523 21.0262 25.5731 21.0177 25.629C20.8438 25.6961 20.6973 25.6064 20.4846 25.6825C20.4445 25.6566 20.3287 25.6562 20.2744 25.6524C20.4556 25.5051 20.5216 25.5135 20.7517 25.4963C20.8166 25.5033 20.8252 25.4987 20.8899 25.4836L20.9008 25.4314C20.8271 25.3264 20.7494 25.2567 20.6582 25.1685L20.6754 25.0952C20.7865 25.1964 20.9135 25.338 21.0184 25.4232Z" fill="#DC4757"/>
<path d="M15.3288 25.1712L15.469 25.229C15.3602 25.3352 15.0254 25.3189 14.8668 25.3347C14.5453 25.3667 14.2288 25.4355 13.9055 25.4366C13.796 25.4364 13.6574 25.3941 13.5675 25.4492L13.5127 25.5201C13.4462 25.4124 13.3306 25.4134 13.2173 25.3992C13.38 25.3655 13.5074 25.3744 13.6628 25.3472C13.892 25.307 14.2178 25.1907 14.4412 25.1744C14.7122 25.1546 15.024 25.1968 15.3018 25.1736L15.3288 25.1712Z" fill="#DC4757"/>
<path d="M19.7712 25.3614C19.8665 25.3519 20.6102 25.4675 20.7516 25.4961C20.5215 25.5134 20.4554 25.505 20.2742 25.6523C19.9813 25.6714 19.7926 25.5485 19.5317 25.4365L19.5698 25.3848C19.6572 25.3847 19.6853 25.3792 19.7712 25.3614Z" fill="#D44859"/>
<path d="M17.7339 22.2299C17.9441 22.2272 18.4124 22.2281 18.608 22.2696C18.5691 22.2957 18.4933 22.2986 18.4437 22.3047C18.491 22.3399 18.5218 22.342 18.5788 22.355C18.579 22.3715 18.5817 22.3986 18.577 22.4121C18.3196 22.351 17.9164 22.3072 17.8896 22.6696C17.8557 22.4958 17.8036 22.39 17.7339 22.2299Z" fill="#D44859"/>
<path d="M19.3614 25.2534C19.522 25.3504 19.5821 25.3528 19.7715 25.3613C19.6856 25.379 19.6575 25.3846 19.57 25.3847L19.532 25.4364C19.4071 25.4731 19.0979 25.4639 18.9951 25.3764L19.0165 25.3264C19.1281 25.2652 19.2352 25.2648 19.3614 25.2534Z" fill="#DC4757"/>
<path d="M17.8615 7.6357C18.0586 7.63443 18.2557 7.62989 18.4527 7.62207C18.3928 7.98306 18.4165 8.46151 18.4289 8.83487C18.6882 9.08226 18.5731 9.52396 18.584 9.87002L18.5872 9.90216C18.6937 10.3509 18.7116 10.4507 18.7283 10.9057C18.7339 11.0793 18.7333 11.2586 18.7668 11.4284C18.914 11.5807 18.8861 12.3177 18.9488 12.5729C19.0639 13.0415 19.0989 13.5773 19.2173 14.0413C19.2878 14.6991 19.6354 15.6141 19.5606 16.1739C20.4688 16.0326 20.8587 16.367 21.3834 17.0345C21.4573 17.7091 21.3606 17.9893 21.262 18.6488C21.1739 19.2381 21.3144 19.4999 20.9638 20.0609C20.896 20.0928 20.7001 20.1798 20.6472 20.2161L20.5924 20.2124C20.4792 20.119 19.2312 20.1554 18.9619 20.1553L16.1059 20.1558L14.0494 20.1557C13.7663 20.156 12.8444 20.0948 12.696 20.2829C12.6636 20.3245 12.6325 20.3671 12.6028 20.4106C12.58 20.3681 12.5659 20.3265 12.5484 20.2814C12.3903 20.0924 12.122 19.7887 12.0591 19.5569C11.9468 19.0658 12.0068 18.5356 11.9832 18.0281C11.9574 17.4727 11.7414 17.0156 12.2391 16.6112C12.8288 16.1319 12.9403 16.0984 13.6871 16.1434L13.6819 16.0675C13.6823 15.873 14.0341 14.2432 14.1072 14.1031C14.166 13.6378 14.2517 13.1714 14.3324 12.7092C14.3902 12.3781 14.494 12.035 14.4989 11.7015C14.5189 11.221 14.5078 11.089 14.652 10.6317C14.6536 10.4011 14.6608 10.1706 14.6735 9.94037C14.6958 9.60152 14.8047 9.45029 14.8311 9.14476C14.8626 8.78139 14.7808 8.26244 14.8917 7.91777L14.9473 7.79153L14.9517 7.66219C15.9257 7.62049 16.8877 7.63382 17.8615 7.6357Z" fill="#CAD1D7"/>
<path d="M17.8616 7.6357C18.0587 7.63443 18.2558 7.62989 18.4528 7.62207C18.3929 7.98306 18.4166 8.46151 18.429 8.83487C18.6883 9.08226 18.5732 9.52396 18.5842 9.87002L18.5874 9.90216C18.6938 10.3509 18.7118 10.4507 18.7285 10.9057C18.734 11.0793 18.7334 11.2586 18.7669 11.4284C18.4014 11.61 16.1341 11.4377 15.5643 11.4969C15.4345 11.5104 14.7962 11.4984 14.6496 11.4845C14.5102 11.5252 14.5264 11.5639 14.499 11.7015C14.519 11.221 14.508 11.089 14.6522 10.6317C14.6537 10.4011 14.6609 10.1706 14.6736 9.94037C14.6959 9.60151 14.8048 9.45029 14.8313 9.14476C14.8627 8.78139 14.7809 8.26244 14.8918 7.91777L14.9474 7.79153L14.9518 7.66219C15.9259 7.62049 16.8878 7.63382 17.8616 7.6357Z" fill="#D52F3E"/>
<path d="M17.8617 7.6357C18.0588 7.63443 18.2559 7.62989 18.4529 7.62207C18.393 7.98306 18.4167 8.46151 18.429 8.83487L18.2968 8.83206C18.044 8.79462 17.3954 8.81107 17.1131 8.81141L14.9247 8.81122C14.8761 8.74368 14.8946 8.06297 14.8919 7.91777L14.9475 7.79153L14.9519 7.66219C15.9259 7.62049 16.8879 7.63382 17.8617 7.6357Z" fill="#CAD1D7"/>
<path d="M14.9521 7.66232C15.9262 7.62062 16.8882 7.63395 17.8619 7.63583C17.9779 7.64956 18.1264 7.64999 18.2037 7.72949L18.2015 7.78696C17.8887 7.9996 15.6465 7.9099 15.1524 7.89147C15.093 7.88925 15.001 7.82863 14.9478 7.79166L14.9521 7.66232Z" fill="#A3AEB8"/>
<path d="M14.6738 9.94008C14.6962 9.60122 14.805 9.45 14.8315 9.14447C14.863 8.7811 14.7812 8.26215 14.8921 7.91748C14.8948 8.06267 14.8763 8.74338 14.9249 8.81093C14.9234 9.09785 15.0218 10.1711 14.7201 10.207C14.663 10.1352 14.6759 10.0386 14.6738 9.94008Z" fill="#DD6976"/>
<path d="M18.4289 8.83484C18.6883 9.08223 18.5732 9.52393 18.5841 9.86999C18.5534 9.78069 18.4823 9.67824 18.4323 9.59401C18.2674 9.3163 18.2927 9.14474 18.2967 8.83203L18.4289 8.83484Z" fill="#DD6976"/>
<path d="M18.5874 9.90234C18.6938 10.351 18.7118 10.4509 18.7285 10.9058C18.6612 10.8985 18.5519 10.9001 18.5231 10.829C18.4216 10.5781 18.4302 10.3033 18.4637 10.0391C18.4741 9.95598 18.5243 9.94287 18.5874 9.90234Z" fill="#DD6976"/>
<path d="M14.6522 10.6318C14.761 10.9272 14.7165 11.1794 14.6496 11.4846C14.5102 11.5253 14.5264 11.5641 14.499 11.7017C14.519 11.2211 14.508 11.0891 14.6522 10.6318Z" fill="#DD6976"/>
<path d="M14.6496 11.4842C14.7962 11.4982 15.4346 11.5102 15.5643 11.4967C16.1341 11.4375 18.4014 11.6098 18.767 11.4282C18.9142 11.5805 18.8863 12.3175 18.9489 12.5726C19.0641 13.0412 19.099 13.577 19.2174 14.0411C19.1036 14.1358 19.0402 14.1135 18.8955 14.1174C17.3399 14.1596 15.7399 14.0643 14.189 14.1266L14.1074 14.1029C14.1662 13.6376 14.2519 13.1712 14.3326 12.7089C14.3904 12.3779 14.4942 12.0348 14.4991 11.7013C14.5264 11.5637 14.5102 11.5249 14.6496 11.4842Z" fill="#CAD1D7"/>
<path d="M19.2175 14.0415C19.288 14.6993 19.6356 15.6143 19.5608 16.174C19.5433 16.2575 19.559 16.2437 19.5082 16.2958C17.6823 16.3061 15.8428 16.2959 14.0159 16.2932C13.81 16.2929 13.8249 16.2855 13.6873 16.1436L13.6821 16.0677C13.6825 15.8731 14.0343 14.2434 14.1074 14.1033L14.1891 14.127C15.74 14.0647 17.3399 14.16 18.8955 14.1178C19.0402 14.1139 19.1036 14.1362 19.2175 14.0415Z" fill="#D52F3E"/>
<path d="M14.1074 14.103L14.1891 14.1268C14.217 14.2523 14.1691 14.3923 14.1306 14.5146C14.0372 14.8115 13.9899 15.7378 13.8611 15.9633C13.7885 16.0218 13.7731 16.0371 13.6821 16.0674C13.6825 15.8729 14.0343 14.2432 14.1074 14.103Z" fill="#DD6976"/>
<path d="M16.2884 1.67075C16.5247 1.66851 17.0291 1.61389 17.1995 1.71353C17.2558 1.82119 17.2381 1.79805 17.2329 1.93261C17.4859 2.43607 17.4253 3.00236 17.4297 3.5762C17.4312 3.7656 17.4436 3.989 17.4029 4.17104C17.4091 4.29258 17.4225 4.45806 17.4184 4.57614C18.0135 4.55852 18.3585 4.42053 18.6455 5.02189C18.7298 5.29039 18.7822 6.12245 18.7488 6.36538C18.7349 6.86443 18.7722 7.20783 18.4529 7.62189C18.2559 7.62971 18.0588 7.63426 17.8617 7.63552C16.8879 7.63364 15.926 7.62032 14.9519 7.66202L14.7325 7.47571C14.6373 7.07611 14.6498 6.61475 14.6426 6.20127C14.6125 5.89392 14.6638 5.35543 14.681 5.02727C14.6855 4.94034 14.7391 4.92149 14.8004 4.88136C15.5158 4.42306 15.2651 4.64844 15.9602 4.58359C16.0286 4.4754 16.0058 4.46356 16.011 4.31558C15.9771 4.1907 15.9762 3.40223 15.974 3.23098C15.9772 2.85831 15.9027 2.10711 16.0482 1.7853C16.0812 1.71239 16.209 1.68927 16.2884 1.67075Z" fill="#D52F3E"/>
<path d="M14.6426 6.20158L17.2992 6.19617C17.6136 6.19626 18.4394 6.17973 18.71 6.21985C18.7399 6.28461 18.742 6.29462 18.7488 6.36569C18.7349 6.86473 18.7722 7.20813 18.4529 7.6222C18.2559 7.63002 18.0588 7.63456 17.8617 7.63583C16.8879 7.63395 15.9259 7.62062 14.9519 7.66232L14.7324 7.47602C14.6373 7.07642 14.6498 6.61506 14.6426 6.20158Z" fill="#CAD1D7"/>
<path d="M17.4029 4.17139C17.409 4.29293 17.4224 4.4584 17.4183 4.57649C18.0134 4.55887 18.3584 4.42088 18.6454 5.02224L18.5735 5.13111L18.5207 5.13262C18.3452 4.92125 18.295 4.93083 18.02 4.91556C17.7632 4.90131 17.5042 4.91167 17.2471 4.91643C17.2469 4.56224 17.2926 4.50805 17.4029 4.17139Z" fill="#DD6976"/>
<path d="M15.9738 3.23113C15.977 2.85846 15.9024 2.10726 16.048 1.78545C16.081 1.71254 16.2088 1.68942 16.2882 1.6709C16.286 2.12502 16.3189 2.62925 16.2659 3.08069C16.2499 3.21718 16.225 3.27514 16.0908 3.28955L15.9738 3.23113Z" fill="#D44859"/>
<path d="M17.233 1.93262C17.4861 2.43607 17.4254 3.00237 17.4298 3.57621C17.4 3.71315 17.3994 3.71364 17.2716 3.72897C17.0551 3.53138 17.0389 2.13539 17.233 1.93262Z" fill="#DC4757"/>
<path d="M16.0109 4.31592C16.0587 4.51647 16.1097 4.72034 16.1507 4.92195C15.8618 4.90924 14.9884 4.9319 14.8003 4.8817C15.5157 4.4234 15.265 4.64878 15.9601 4.58392C16.0285 4.47573 16.0057 4.46389 16.0109 4.31592Z" fill="#DD6976"/>
</svg>
