<svg width="117" height="101" viewBox="0 0 117 101" fill="none" xmlns="http://www.w3.org/2000/svg">
<path d="M54.828 8.87008C57.2659 8.10092 58.665 8.81959 58.9417 11.438C58.8466 13.41 58.8629 15.1089 58.8728 17.0576C58.9642 18.2358 58.8743 19.1574 58.9352 20.1681C58.7329 22.1217 58.9752 24.1066 58.8617 25.87C58.9938 26.7161 58.9303 27.8498 58.91 28.7277C60.0373 29.11 63.6017 28.8922 65.0628 29.0705C76.6193 30.4802 97.5623 34.9043 96.2955 50.258C96.2195 51.1798 96.3605 52.3542 96.2181 53.2513C95.7199 58.9325 94.2955 64.0234 92.0827 69.281C91.7515 70.0412 91.1669 70.8055 90.8359 71.5512C83.8523 87.2846 68.3372 95.0502 51.5204 93.1297C41.0859 91.938 32.8098 88.2377 26.1337 80.0012C25.0174 78.6238 24.0414 77.4829 23.1909 75.88C22.8776 75.4289 21.4094 72.3326 21.0225 71.6102C20.9737 71.5386 20.9105 71.3132 20.8798 71.2171C18.7733 66.6103 16.4805 58.2928 16.3629 53.2673C16.2171 52.4318 16.3582 51.4177 16.292 50.5742C15.4004 39.2083 26.315 34.0236 35.5245 31.3365C38.5536 30.4528 41.5155 30.1305 44.5401 29.4293C44.6126 28.4513 44.5624 26.1679 44.5786 25.0691C43.3878 25.0512 42.1317 24.8443 40.967 24.6088C40.3829 24.127 39.9073 23.5928 39.848 22.8068C39.6452 20.1165 42.8044 20.2431 44.6102 20.1291L44.5907 17.8648C43.2418 17.8354 41.9758 17.9262 40.7331 17.421C39.6346 16.1784 39.7604 15.5358 40.1005 14.0177C41.3537 12.7326 42.8806 13.1126 44.6438 12.7865C44.952 12.1106 44.9594 11.7624 45.4931 11.2458C47.091 10.7273 48.3958 10.7189 49.1939 12.4178C50.0487 12.2135 53.4524 12.3126 53.9049 11.9579C53.9911 10.5991 53.9764 9.98881 54.828 8.87008ZM49.1939 12.4178C48.3958 10.7189 47.091 10.7273 45.4931 11.2458C44.9594 11.7624 44.952 12.1106 44.6438 12.7865C42.8806 13.1126 41.3537 12.7326 40.1005 14.0177C39.7604 15.5358 39.6346 16.1784 40.7331 17.421C41.9758 17.9262 43.2418 17.8354 44.5907 17.8648L44.6102 20.1291C42.8044 20.2431 39.6452 20.1165 39.848 22.8068C39.9073 23.5928 40.3829 24.127 40.967 24.6088C42.1317 24.8443 43.3878 25.0512 44.5786 25.0691C44.5624 26.1679 44.6126 28.4513 44.5401 29.4293C44.7331 31.55 44.6323 33.3825 44.7089 35.4334C44.7768 35.8522 44.7787 37.2257 44.7902 37.7174C43.0657 38.1011 39.8214 39.2978 38.4228 40.1806C35.4481 42.0584 33.0702 45.0604 35.3479 48.5652C37.2008 51.4164 40.8416 52.8811 44.042 53.5526C47.968 54.3761 52.8471 54.1557 56.2243 51.7993C57.4711 50.8985 58.5377 49.8594 59.8129 48.9735C63.3326 46.5285 68.5682 46.3756 72.6329 47.1699C74.1336 47.4587 76.1786 48.312 77.1254 49.5566C77.6166 50.5506 77.5377 52.2459 77.2286 53.2083C75.6991 57.9703 69.9128 60.7027 65.1454 60.3051C63.2507 60.1471 61.9856 60.5065 60.9795 58.6627C61.6911 58.195 62 57.5661 62.7607 57.0571C64.8855 55.635 67.0822 55.8669 69.2359 55.3782C69.6597 54.9367 69.9482 54.7332 70.4348 54.3736C70.5082 53.7235 70.5822 53.2086 70.3782 52.568C70.1897 51.9655 69.7625 51.4666 69.1962 51.1874C67.8611 50.5156 65.0131 51.2155 63.6613 51.66C59.9066 52.8947 55.1238 56.1541 56.6656 60.7547C57.1162 62.0992 58.3651 63.2429 59.6321 63.8312C68.3098 67.4396 81.2587 62.3045 82.1452 52.1123C83.1539 42.6406 69.6808 40.9503 63.0554 42.6112C61.3637 43.0352 60.2949 43.6244 58.7364 44.2039C58.7644 43.963 58.8273 41.6927 58.9396 41.6456C59.8071 41.2823 60.2267 40.9733 60.8993 40.3548C61.1642 39.3452 61.1856 39.1788 60.9837 38.1618C60.6107 37.7874 60.224 37.3294 59.8704 36.9297C59.5379 36.8451 59.1347 36.801 58.7897 36.7538C58.8253 36.031 58.829 35.2536 58.8459 34.5257C58.926 32.7489 58.8877 30.5488 58.91 28.7277C58.9303 27.8498 58.9938 26.7161 58.8617 25.87C58.9752 24.1066 58.7329 22.1217 58.9352 20.1681C58.8743 19.1574 58.9642 18.2358 58.8728 17.0576C58.8629 15.1089 58.8466 13.41 58.9417 11.438C58.665 8.81959 57.2659 8.10092 54.828 8.87008C53.9764 9.98881 53.9911 10.5991 53.9049 11.9579C53.4524 12.3126 50.0487 12.2135 49.1939 12.4178Z" fill="#F3B04F"/>
<path d="M16.3628 53.2677C16.3796 52.9806 16.3799 52.2209 16.5196 52.0283C16.9093 52.2879 17.1141 53.2807 17.4182 53.8703C17.8273 54.6488 18.275 55.4066 18.7594 56.1408C21.7987 60.7541 25.743 63.3352 30.662 65.6597C46.4099 73.1017 71.4705 72.9131 86.3747 63.4628C88.0624 62.3699 89.6452 61.1228 91.1027 59.7377C91.8455 59.0381 92.9441 57.9107 93.5567 57.0673C94.296 56.0493 94.7691 54.4607 95.5774 53.4717C95.6691 53.3594 95.9782 53.2989 96.1277 53.2692L96.218 53.2518C95.7198 58.9329 94.2954 64.0238 92.0826 69.2815C91.7514 70.0416 91.1668 70.8059 90.8358 71.5516C83.8522 87.285 68.3371 95.0506 51.5203 93.1301C41.0858 91.9384 32.8097 88.2381 26.1337 80.0016C25.0173 78.6243 24.0413 77.4833 23.1908 75.8804C22.8775 75.4294 21.4093 72.3331 21.0224 71.6106C20.9736 71.539 20.9105 71.3136 20.8797 71.2175C18.7732 66.6107 16.4804 58.2932 16.3628 53.2677Z" fill="#CFD5DA"/>
<path d="M21.1545 66.4064C21.5127 66.1722 21.9291 65.8587 22.3575 66.0116C23.9757 66.5892 27.7637 68.7312 28.8823 69.8535C29.0621 71.065 28.9602 72.2505 29.0051 73.4505C29.2544 80.1197 27.7353 78.1092 23.6708 75.7706C23.4176 75.7533 24.0908 73.9813 23.8821 73.8251L26.7416 75.0439C26.4283 74.5928 27.1286 73.6569 26.7416 72.9344C26.6928 72.8628 21.0224 69.278 20.9917 69.1819C21.0601 67.9225 20.9591 67.4844 21.1545 66.4064Z" fill="#D96471"/>
<path d="M47.2776 74.6994C48.2173 74.465 49.4561 74.3874 50.4236 74.4518C53.6181 74.6646 57.828 74.0681 60.9064 74.7061C61.3741 77.5668 61.0251 80.686 61.1562 83.6006C61.1957 84.4801 61.273 86.0992 59.9349 86.2746C58.0983 86.2814 55.6369 86.4418 53.8332 86.2489C52.3635 85.3389 52.7838 84.8884 53.806 83.8685C55.4283 83.7981 57.2354 83.833 58.872 83.8328C58.8176 81.7182 58.7865 79.0675 58.8685 76.9651C55.8484 76.8524 52.2578 76.9049 49.2059 76.9331L49.2076 79.2228C51.102 79.2038 52.9967 79.186 54.8968 79.1749C55.7331 79.1699 57.3096 79.1639 57.4586 80.2995C57.5534 81.0211 56.7667 81.141 56.5669 81.5046C56.4504 81.7247 56.3508 81.8605 56.0872 81.8797C54.9658 81.9615 48.8861 82.1689 48.3071 81.8058L48.5234 81.6304L48.2959 81.5157C48.0492 81.4524 47.3105 81.2859 47.234 81.0376C46.784 79.577 46.7512 76.0791 47.2776 74.6994Z" fill="#D96471"/>
<path d="M66.2467 74.6096C68.1019 74.0755 70.3297 73.6137 72.2345 73.1419C74.3577 72.6161 77.128 71.7268 79.2421 71.5532C79.3701 71.8572 79.6648 72.5542 79.69 72.8403C79.8475 74.6307 80.1204 79.2343 79.8717 80.8492C78.0845 82.2052 75.4205 82.8669 73.3249 83.6759C72.8449 83.8612 71.465 83.5981 71.6261 82.909C72.1661 80.6012 75.7392 80.9006 77.2719 79.5871C77.8539 79.0843 77.3823 77.9559 77.4436 77.2708C77.4239 76.2718 77.4151 75.2971 77.4193 74.3046C74.5558 74.8694 71.7555 75.741 68.8568 76.3926C68.5187 76.7839 68.5468 77.2177 68.5841 77.7379C68.6091 78.0531 68.6416 78.3677 68.6818 78.6813C70.5875 78.1746 72.5092 77.4859 74.4279 77.094C76.3026 76.7112 76.4041 77.2804 76.2161 78.8094C74.9146 79.3935 67.5317 81.6901 66.3092 81.3088C65.8054 80.8768 65.8507 79.5238 65.8685 78.8798C65.9092 77.4053 65.7268 76.0127 66.2467 74.6096Z" fill="#D96471"/>
<path d="M31.8701 77.2146C31.8545 76.1242 31.753 72.4947 32.3136 71.7853C32.8082 71.5853 33.4417 71.646 33.9576 71.7318C35.5117 71.9903 37.0657 72.6166 38.5801 73.0622C39.7442 73.4045 40.975 73.6505 42.1101 74.0722C42.4275 74.19 43.0724 74.418 43.1943 74.7486C43.4631 75.4774 43.2855 83.4304 42.9984 84.0386C42.8099 84.4377 42.1516 84.5788 41.7632 84.7096C40.604 84.0536 37.0282 82.9169 35.7152 82.6304C32.3632 81.8992 32.7777 79.0672 35.8237 80.1653C37.3455 80.7138 39.2437 81.1305 40.6777 81.7415C40.7822 80.6095 40.9749 77.3886 40.7692 76.3646C40.5179 76.006 35.5934 74.6106 34.8901 74.4136C34.348 75.0536 34.9024 75.3984 34.3316 76.1014C34.9404 76.2379 36.1902 76.6931 36.8208 76.9114C38.0758 77.346 38.3156 77.6559 38.8266 78.7305C38.7896 78.7624 38.7522 78.7934 38.7142 78.824C36.8353 80.3195 34.29 78.1531 32.334 77.9484L31.8701 77.2146Z" fill="#D96471"/>
<path d="M89.7137 65.1964C90.6587 65.1456 90.754 65.445 91.243 66.1366C90.6055 71.3377 91.6128 70.8087 86.7054 73.1226C86.5078 72.9496 86.1769 72.6748 86.0074 72.4922C84.5981 70.9736 88.6305 70.3058 88.6229 68.8751L88.4661 68.8266C87.77 68.9576 85.422 70.3924 84.7407 70.803C84.724 71.6095 84.6629 73.8205 84.7731 74.5548L84.9137 74.6509C85.3533 74.293 85.8672 73.5542 86.5135 73.8281C87.0338 74.0486 87.5261 75.207 87.7552 75.7023C86.0508 76.4381 84.0003 78.404 82.3843 76.7979C82.0796 74.9738 82.3451 72.4866 82.2603 70.6043C82.2175 69.6508 82.6565 69.7011 83.1112 68.8901C85.3663 68.2416 88.0437 65.7502 89.7137 65.1964Z" fill="#D96471"/>
<path d="M54.8284 8.87008C57.2663 8.10092 58.6654 8.81959 58.9421 11.438C58.847 13.41 58.8633 15.1089 58.8732 17.0576C58.9646 18.2358 58.8747 19.1574 58.9356 20.1681C58.7333 22.1217 58.9756 24.1066 58.8621 25.87C58.9942 26.7161 58.9307 27.8498 58.9104 28.7277C58.8881 30.5488 58.9264 32.7489 58.8463 34.5257C58.8294 35.2536 58.8257 36.031 58.7901 36.7538C59.1351 36.801 59.5383 36.8451 59.8708 36.9297C60.2244 37.3294 60.6111 37.7874 60.9841 38.1618C61.186 39.1788 61.1646 39.3452 60.8997 40.3548C60.2271 40.9733 59.8075 41.2823 58.94 41.6456C58.8277 41.6927 58.7648 43.963 58.7368 44.2039C60.2953 43.6244 61.3641 43.0352 63.0558 42.6112C69.6812 40.9503 83.1543 42.6406 82.1456 52.1123C81.2591 62.3045 68.3102 67.4396 59.6325 63.8312C58.3655 63.2429 57.1166 62.0992 56.666 60.7547C55.1242 56.1541 59.907 52.8947 63.6617 51.66C65.0135 51.2155 67.8615 50.5156 69.1966 51.1874C69.7629 51.4666 70.1901 51.9655 70.3786 52.568C70.5826 53.2086 70.5086 53.7235 70.4352 54.3736C69.9486 54.7332 69.6601 54.9367 69.2363 55.3782C67.0826 55.8669 64.8859 55.635 62.7611 57.0571C62.0004 57.5661 61.6915 58.195 60.9799 58.6627C61.986 60.5065 63.2511 60.147 65.1458 60.3051C69.9132 60.7026 75.6995 57.9703 77.229 53.2083C77.5381 52.2459 77.617 50.5506 77.1258 49.5565C76.179 48.312 74.134 47.4587 72.6333 47.1699C68.5686 46.3756 63.333 46.5285 59.8133 48.9735C58.5381 49.8594 57.4715 50.8985 56.2247 51.7993C52.8475 54.1557 47.9684 54.3761 44.0424 53.5526C40.842 52.8811 37.2012 51.4164 35.3483 48.5652C33.0706 45.0604 35.4485 42.0584 38.4232 40.1806C39.8218 39.2977 43.0661 38.1011 44.7906 37.7174C44.7791 37.2257 44.7772 35.8522 44.7093 35.4334C44.6327 33.3825 44.7335 31.55 44.5405 29.4293C44.613 28.4513 44.5628 26.1679 44.579 25.0691C43.3882 25.0512 42.1321 24.8443 40.9674 24.6088C40.3833 24.127 39.9077 23.5928 39.8484 22.8068C39.6456 20.1165 42.8048 20.2431 44.6106 20.1291L44.5911 17.8648C43.2422 17.8354 41.9762 17.9262 40.7335 17.421C39.635 16.1784 39.7608 15.5358 40.1009 14.0177C41.3541 12.7326 42.881 13.1126 44.6442 12.7865C44.9524 12.1106 44.9598 11.7624 45.4935 11.2458C47.0914 10.7273 48.3962 10.7189 49.1943 12.4178C50.0491 12.2135 53.4528 12.3126 53.9053 11.9579C53.9915 10.5991 53.9768 9.98881 54.8284 8.87008ZM53.8879 28.7928C53.8339 27.6848 53.8694 26.5807 53.8913 25.4719C52.3549 25.4679 50.779 25.3348 49.264 25.3692C49.341 26.2707 49.35 28.1346 49.2971 29.059C50.6546 28.8852 52.4818 28.8645 53.8879 28.7928ZM49.3263 20.1614C50.8584 20.1214 52.4403 20.1753 53.9264 20.1248C53.8442 19.3212 53.8633 18.3037 53.8572 17.4797C52.9648 17.4761 49.9264 17.6495 49.3223 17.5598L49.3263 20.1614Z" fill="#F9DB90"/>
<path d="M49.2966 29.0592C50.6541 28.8854 52.4814 28.8647 53.8875 28.793C54.1066 30.1587 53.9044 33.0374 53.9754 34.5342C52.3403 34.562 50.8449 34.6778 49.227 34.7501C49.2206 32.7963 49.2066 31.017 49.2966 29.0592Z" fill="#9EABB4"/>
<path d="M53.9053 11.958C54.0633 13.0738 53.9581 16.3302 53.8572 17.4798C52.9649 17.4762 49.9264 17.6496 49.3224 17.5599C49.1501 16.8333 49.2324 13.4712 49.1943 12.4179C50.0491 12.2136 53.4528 12.3127 53.9053 11.958Z" fill="#A16C60"/>
<path d="M49.3261 20.1616C50.8583 20.1215 52.4402 20.1755 53.9263 20.125C53.9937 21.5064 54.015 24.0973 53.8911 25.4721C52.3547 25.468 50.7789 25.335 49.2639 25.3694C49.1365 24.7971 49.2309 20.8807 49.3261 20.1616Z" fill="#A16C60"/>
<path d="M40.1005 14.0178C41.3537 12.7327 42.8807 13.1127 44.6438 12.7866C44.7405 14.6041 44.5454 16.2006 44.5908 17.8649C43.2419 17.8355 41.9758 17.9263 40.7331 17.4211C39.6347 16.1785 39.7604 15.5359 40.1005 14.0178Z" fill="#A16C60"/>
<path d="M40.9677 24.6091C40.3836 24.1274 39.908 23.5932 39.8487 22.8072C39.6458 20.1169 42.805 20.2434 44.6109 20.1294C44.7411 21.4444 44.6875 23.743 44.5792 25.0694C43.3884 25.0516 42.1323 24.8446 40.9677 24.6091Z" fill="#A16C60"/>
<path d="M49.2276 34.7501C50.8454 34.6778 52.3409 34.562 53.9759 34.5342C53.9706 35.2714 53.9452 36.0627 54.0422 36.7892C52.4412 36.8408 50.8418 36.9337 49.2456 37.0677C49.2354 36.3344 49.2023 35.4727 49.2276 34.7501Z" fill="#F3B04F"/>
<path d="M53.8635 41.4775L54.0028 41.5838C53.9984 42.6417 53.9326 43.6792 53.9469 44.7448C53.9543 45.3024 54.3316 47.0594 54.2578 47.3338C52.7574 48.8568 50.1447 49.2077 48.1317 49.2418C45.0266 49.2945 43.27 48.4822 40.5486 47.1685C39.7432 46.6857 39.6226 46.4517 38.9883 45.7346C40.9523 43.9883 42.3631 43.2107 44.9244 42.7948C45.2732 43.1888 46.1349 43.7526 46.6564 43.8344C47.6159 43.9848 48.0397 43.5967 48.7532 43.0854C49.1653 42.1393 49.1102 41.8528 50.1944 41.7518C51.4293 41.6368 52.6204 41.5158 53.8635 41.4775Z" fill="#F3B04F"/>
<path d="M58.91 28.728C60.0373 29.1103 63.6017 28.8925 65.0628 29.0709C76.6193 30.4805 97.5623 34.9046 96.2955 50.2584C96.2195 51.1801 96.3605 52.3545 96.2181 53.2517L96.1278 53.2692C95.9783 53.2988 95.6692 53.3593 95.5775 53.4716C94.7692 54.4606 94.2961 56.0492 93.5568 57.0672C92.9442 57.9106 91.8456 59.038 91.1028 59.7376C89.6453 61.1227 88.0625 62.3698 86.3748 63.4628C71.4706 72.9131 46.41 73.1016 30.6621 65.6596C25.7431 63.3351 21.7988 60.754 18.7595 56.1407C18.2751 55.4065 17.8274 54.6487 17.4183 53.8702C17.1142 53.2806 16.9094 52.2879 16.5197 52.0283C16.3799 52.2208 16.3797 52.9806 16.3629 53.2677C16.2171 52.4322 16.3582 51.418 16.292 50.5746C15.4004 39.2087 26.315 34.0239 35.5245 31.3369C38.5536 30.4531 41.5155 30.1309 44.5401 29.4297C44.7331 31.5504 44.6323 33.3829 44.7089 35.4338C37.7508 36.3382 29.7133 39.0325 24.4819 43.8198C20.1147 47.8163 19.9179 53.3936 24.1102 57.6111C28.4076 61.9288 35.0667 64.4388 40.9532 65.7481C44.8867 66.623 49.9031 67.3024 53.9461 67.4723C55.9982 67.5584 59.0187 67.5944 61.0775 67.3709C70.1457 66.3446 80.5888 64.7031 87.7229 58.5475C92.6025 54.3372 93.2961 48.7132 88.5814 44.1272C81.3913 37.1331 68.4988 34.658 58.8459 34.5261C58.926 32.7493 58.8877 30.5492 58.91 28.728Z" fill="#9EABB4"/>
<path d="M28.1254 46.1812C28.6171 46.1897 30.0414 46.8555 30.1136 47.2919C31.3159 54.5566 38.7728 59.3921 45.6893 60.1233C47.4037 60.3045 49.8201 59.9866 51.1369 61.2348C52.4618 62.4907 51.413 63.8615 50.4093 64.8574L50.4075 64.8638L49.5371 64.9598C45.4171 65.2704 38.9033 63.7842 35.3191 61.6448C31.2354 59.2074 27.5081 55.2082 26.1622 50.5268C25.9096 49.6481 25.7511 47.9127 26.2647 47.138C26.7054 46.4733 27.4053 46.3313 28.1254 46.1812Z" fill="#F9DB90"/>
<path d="M58.9359 20.1682C69.3363 20.0308 79.8004 20.4577 90.2072 20.1524C92.0741 20.0977 94.8614 20.1319 96.6745 20.3045C100.026 20.9308 98.6835 25.155 97.3636 27.0076C97.187 27.2555 96.1866 27.3544 95.9216 27.3414C91.4209 27.1218 86.8221 27.057 82.3305 26.8147L67.5153 26.1591C65.6076 26.0686 63.7036 25.9947 61.794 25.9607C61.0048 25.9466 59.5976 25.7994 58.8624 25.87C58.9759 24.1067 58.7336 22.1218 58.9359 20.1682Z" fill="#A16C60"/>
<path d="M58.9418 11.4381C62.1395 11.4959 65.3882 11.1031 68.5936 10.9856C69.6743 10.9461 70.9812 10.6776 72.0927 10.574C78.4198 9.93962 84.7612 9.45773 91.1114 9.12866C92.8408 9.05325 94.5909 8.65543 96.3235 8.69517C96.8329 8.70685 97.4503 8.9999 97.9083 9.21774C98.8082 11.2313 98.7648 14.0241 96.9646 15.5359C93.9429 15.8916 90.9789 15.8838 87.9405 15.9779L75.1092 16.3963C74.2266 16.4242 73.3471 16.5209 72.4705 16.5565C68.059 16.7355 63.2715 17.1485 58.873 17.0577C58.863 15.1091 58.8467 13.4101 58.9418 11.4381Z" fill="#A16C60"/>
</svg>
