<svg width="36" height="34" viewBox="0 0 36 34" fill="none" xmlns="http://www.w3.org/2000/svg">
<path d="M17.4859 8.89648C18.6749 9.07269 19.6362 9.24273 20.6375 9.97018C20.7188 10.0292 21.1008 10.3034 21.1701 10.325L21.1595 10.3728C21.2202 10.4654 21.6494 10.9372 21.7219 10.9642C22.3322 11.6779 22.7721 12.5211 23.0082 13.4299C23.0566 13.6126 23.2191 14.6009 23.2829 14.6622L23.2307 14.6952C23.2152 14.8529 23.2151 15.2448 23.2373 15.4013C23.0886 16.409 22.9424 17.2645 22.3538 18.121C22.285 18.2212 21.8032 18.9636 21.773 19.0505L21.7412 19.0284C21.6096 19.1024 21.3318 19.446 21.178 19.579C20.9551 19.7842 20.4936 20.1698 20.2063 20.2659C20.2615 20.4761 21.7149 23.7376 21.7986 23.8268L21.8432 23.8448C21.8189 23.9983 22.4112 25.1816 22.4815 25.4087C22.4916 25.4182 22.5016 25.4278 22.5116 25.4374C22.9758 26.3577 23.4228 27.3813 23.843 28.3249C23.9866 28.6475 24.2958 29.2377 24.4044 29.5218C24.4402 29.6143 24.462 29.7116 24.4691 29.8106C23.8982 29.835 23.2595 29.8198 22.6821 29.8172C22.6998 29.6244 22.4998 29.3055 22.4057 29.1299C21.9605 28.2994 21.6628 27.4071 21.2181 26.5779C21.1441 26.4398 21.106 26.2762 21.0058 26.1558C20.699 26.2646 20.0409 26.3271 19.8155 26.4819C19.8243 26.863 19.5558 27.4814 19.3261 27.7907C18.951 28.2978 18.3635 28.5741 17.7488 28.6565C16.01 28.8896 14.5096 28.3363 14.2813 26.4151C13.9467 26.3696 13.489 26.2134 13.1632 26.1022C12.9993 26.5363 12.7998 26.9283 12.6268 27.3524C12.2935 28.1701 11.8199 28.9574 11.5776 29.8058C11.4243 29.8496 9.86006 29.8234 9.70264 29.7823C9.9716 29.2842 10.1284 28.6384 10.3817 28.1699C10.8834 27.242 11.236 26.4223 11.6294 25.4553C11.3224 25.3459 11.2671 25.2569 11.0473 25.0199C11.0475 25.0134 11.2051 24.7245 11.2283 24.6635C11.3913 24.2345 11.4074 23.7416 11.365 23.2925L11.4189 23.2182C11.6789 23.3899 12.282 23.6646 12.3864 23.8366C12.6911 23.3386 12.9374 22.6595 13.163 22.121C13.3695 21.6282 13.6551 21.1649 13.8431 20.6635C13.8991 20.5142 13.9465 20.3935 14.0199 20.2504C13.6457 20.1418 13.3579 19.854 13.0337 19.6237C12.901 19.4479 12.6385 19.1876 12.4816 19.0327C12.1042 18.4691 11.6561 18.0288 11.4012 17.2843C11.2132 16.735 11.0831 16.0436 10.9526 15.4752C10.9334 15.3914 10.7803 15.3879 10.6916 15.3745L10.9481 15.3576C10.9819 15.2286 10.9721 14.7198 10.957 14.5786C11.1217 13.1402 11.5583 12.0135 12.5197 10.9433C12.6735 10.8054 12.9327 10.5311 13.0494 10.3642C13.1347 10.3285 13.3584 10.1059 13.4681 10.0275C14.559 9.24757 15.3711 9.08793 16.6522 8.90361C16.7637 8.91692 17.3963 8.92275 17.4859 8.89648ZM17.4689 24.0253C17.6158 24.1598 18.0753 24.156 18.3125 24.2551C18.6688 24.4038 18.8697 24.543 19.1604 24.7927C19.6308 24.6562 19.7293 24.5852 20.2829 24.4696C20.1179 24.2503 19.9128 23.5886 19.8039 23.4319C19.6225 23.1707 18.7399 21.0215 18.63 20.9464C18.2008 21.1354 17.654 20.9846 17.4447 21.193C17.4906 21.5482 17.4612 22.2959 17.4705 22.6825C17.4783 23.0077 17.5059 23.7561 17.4689 24.0253ZM15.0443 24.7267C15.2836 24.4025 15.9512 24.2307 16.3361 24.1445C16.4709 24.1143 16.553 24.1643 16.6737 24.0922C16.6526 23.816 16.673 23.1538 16.6772 22.8537C16.6839 22.3654 16.6447 21.6045 16.6946 21.135C16.5745 21.0355 15.8544 21.0368 15.512 20.9222C15.3805 21.3967 15.126 21.8537 14.9145 22.3015C14.6873 22.7934 14.4628 23.2866 14.2409 23.7809C14.1795 23.9165 13.9571 24.3722 13.9398 24.4941C14.2115 24.5437 14.8258 24.7181 15.0443 24.7267ZM19.1353 16.4464C19.4552 16.8462 19.7791 17.1168 20.1356 17.4764C20.3893 17.7323 20.5518 17.9316 20.8293 18.1773C20.8485 18.1617 20.8668 18.1451 20.8842 18.1275C20.9471 18.0648 21.1179 17.7962 21.1807 17.7066C21.6791 16.9965 21.9266 16.2496 21.9411 15.3746C21.4573 15.3709 19.95 15.4366 19.5845 15.3622C19.472 15.8396 19.3619 16.0113 19.1353 16.4464ZM18.5924 13.0116C18.9784 12.3769 19.6775 11.8015 20.237 11.2726C19.4061 10.5381 18.6522 10.2685 17.5847 10.1591L17.4849 10.2001C17.3991 10.4331 17.5368 12.1081 17.4475 12.5146C17.821 12.6084 18.2959 12.7583 18.5924 13.0116ZM15.6308 13.019C16.0326 12.7872 16.1956 12.6677 16.6518 12.5444C16.6498 12.1654 16.7294 10.4361 16.6336 10.1802C16.032 10.2104 15.4343 10.2828 14.9103 10.6053C14.6198 10.784 14.1324 11.019 13.9827 11.3404C14.5058 11.8685 15.1592 12.4633 15.6308 13.019ZM19.7465 19.2004C19.9106 19.0339 20.0682 18.8734 20.24 18.7146C20.0223 18.4058 19.172 17.6112 18.8569 17.2878C18.8393 17.5561 19.573 18.9192 19.7465 19.2004ZM14.6685 14.5504C14.8228 14.035 14.6964 14.024 15.0695 13.5126C14.6252 13.0479 13.7797 12.2721 13.4275 11.8315C12.8824 12.2057 12.2209 13.8965 12.2778 14.5657C12.3067 14.5993 12.3152 14.6166 12.356 14.6323C13.0186 14.5432 13.9019 14.66 14.6685 14.5504ZM13.9586 18.7468C14.0922 18.9032 14.3785 19.0621 14.5688 19.1319C14.6365 19.0587 14.8144 18.5647 14.8316 18.4625C14.8779 18.1882 15.3691 17.4397 15.3316 17.2331C15.1142 17.4615 14.9171 17.7033 14.6964 17.9352C14.428 18.2172 14.1754 18.4187 13.9586 18.7468ZM19.5808 14.6431C20.3387 14.5621 21.1715 14.6737 21.9358 14.623C21.8475 13.9829 21.9585 14.1076 21.6927 13.3523C21.6024 13.0719 21.4771 12.8041 21.3198 12.5551C21.188 12.389 20.9875 11.923 20.7957 11.8368C20.3428 12.3112 19.6014 13.1106 19.0978 13.5119C19.3219 13.8846 19.4973 14.2106 19.5808 14.6431ZM17.4204 19.8788C17.6526 19.8776 17.9377 19.8688 18.1656 19.8801C18.0898 19.5557 17.6721 18.7428 17.4969 18.4502C17.3895 18.9189 17.4775 19.374 17.4204 19.8788ZM16.728 18.4838L16.6781 18.4734C16.5722 18.6211 16.1742 19.6279 16.0604 19.8779C16.2316 19.8779 16.6105 19.9071 16.7223 19.8153C16.6064 19.3602 16.6798 18.9445 16.728 18.4838ZM12.2527 15.3824C12.3083 16.2044 12.5029 16.8903 12.9568 17.5861C13.0697 17.7592 13.1562 17.9474 13.3193 18.0808L13.3415 18.0996C13.3568 18.1114 13.3721 18.1232 13.3874 18.135C13.4484 18.0788 13.5589 17.9683 13.6097 17.9043C14.0343 17.3697 14.5409 16.9381 15.0363 16.4726C14.8956 16.0586 14.8008 16.1281 14.6674 15.489C14.3027 15.3167 12.7828 15.4018 12.2527 15.3824Z" fill="#7E8E9A"/>
<path d="M17.4473 12.5146C17.8208 12.6085 18.2957 12.7583 18.5922 13.0117C18.6878 13.1092 19.0094 13.4467 19.0975 13.5119C19.3217 13.8847 19.4971 14.2107 19.5806 14.6431C19.5768 14.8825 19.569 15.1234 19.5843 15.3622C19.4718 15.8397 19.3617 16.0113 19.1351 16.4464C18.9398 16.5897 18.8033 16.7672 18.683 16.9754C18.1607 17.1993 17.9024 17.3794 17.3238 17.4524C17.1885 17.4268 16.9533 17.4326 16.8084 17.4315C16.2779 17.366 16.0439 17.2328 15.583 16.9687C15.4167 16.8128 15.2161 16.6012 15.0361 16.4727C14.8953 16.0586 14.8006 16.1282 14.6672 15.489C14.6707 15.131 14.6346 14.9324 14.6683 14.5505C14.8226 14.035 14.6962 14.024 15.0693 13.5127C15.1084 13.5059 15.5545 13.0855 15.6306 13.019C16.0324 12.7873 16.1954 12.6678 16.6516 12.5445C16.7136 12.56 17.3148 12.5192 17.4473 12.5146Z" fill="#563986"/>
<path d="M16.6943 21.1349C16.8319 21.0764 17.2335 21.1021 17.389 21.1199C17.4251 21.1511 17.4225 21.15 17.4444 21.1929C17.4904 21.548 17.461 22.2958 17.4702 22.6824C17.4781 23.0075 17.5057 23.7559 17.4687 24.0251C17.4152 24.0977 17.4347 24.0979 17.3409 24.1069C17.1425 24.126 16.9089 24.1371 16.7108 24.131L16.6734 24.092C16.6524 23.8158 16.6728 23.1537 16.6769 22.8535C16.6837 22.3652 16.6445 21.6044 16.6943 21.1349Z" fill="#C8CED4"/>
<path d="M20.2368 11.2725C20.4558 11.4295 20.613 11.5851 20.7924 11.7864L20.7956 11.8366C20.3427 12.3111 19.6012 13.1105 19.0976 13.5117C19.0094 13.4464 18.6879 13.109 18.5923 13.0115C18.9782 12.3768 19.6773 11.8014 20.2368 11.2725Z" fill="#C8CED4"/>
<path d="M15.0361 16.4727C15.2161 16.6011 15.4167 16.8128 15.583 16.9686C15.5232 17.061 15.4679 17.1442 15.4036 17.2335L15.3314 17.2331C15.114 17.4615 14.9168 17.7033 14.6962 17.9352C14.4278 18.2172 14.1751 18.4187 13.9584 18.7468C13.9425 18.7641 13.9469 18.756 13.9096 18.7578C13.7889 18.6497 13.3964 18.2718 13.3872 18.135C13.4482 18.0788 13.5587 17.9683 13.6095 17.9044C14.0341 17.3697 14.5406 16.9381 15.0361 16.4727Z" fill="#C8CED4"/>
<path d="M16.6338 10.1801C16.737 10.1242 17.4581 10.1282 17.5849 10.159L17.4851 10.2C17.3992 10.433 17.537 12.1079 17.4477 12.5144C17.3152 12.519 16.714 12.5598 16.652 12.5443C16.65 12.1652 16.7296 10.436 16.6338 10.1801Z" fill="#C8CED4"/>
<path d="M14.6686 14.5503C14.6349 14.9322 14.671 15.1308 14.6675 15.4888C14.3028 15.3166 12.7828 15.4016 12.2528 15.3823C12.2112 15.274 12.2082 14.8842 12.2412 14.7685C12.2708 14.6651 12.2702 14.686 12.3561 14.6322C13.0187 14.5431 13.9019 14.6598 14.6686 14.5503Z" fill="#C8CED4"/>
<path d="M19.1352 16.4463C19.455 16.8461 19.7789 17.1168 20.1354 17.4763C20.3892 17.7322 20.5517 17.9315 20.8291 18.1772C20.7226 18.301 20.4294 18.6611 20.2915 18.7189L20.2399 18.7146C20.0222 18.4057 19.1718 17.6111 18.8568 17.2877L18.8157 17.2873C18.7385 17.2169 18.7137 17.0812 18.6831 16.9753C18.8034 16.767 18.9399 16.5896 19.1352 16.4463Z" fill="#C8CED4"/>
<path d="M13.4275 11.8316L13.4238 11.7787C13.5375 11.6437 13.7685 11.3694 13.9308 11.3057L13.9827 11.3405C14.5057 11.8686 15.1592 12.4634 15.6308 13.019C15.5546 13.0855 15.1086 13.5059 15.0695 13.5127C14.6251 13.048 13.7796 12.2722 13.4275 11.8316Z" fill="#C8CED4"/>
<path d="M19.5806 14.6433C20.3385 14.5623 21.1713 14.6739 21.9356 14.6232C21.9723 14.727 21.9872 15.2913 21.9409 15.3749C21.4571 15.3711 19.9498 15.4369 19.5843 15.3624C19.569 15.1236 19.5768 14.8827 19.5806 14.6433Z" fill="#C8CED4"/>
<path d="M17.4857 8.89648C18.6747 9.07269 19.636 9.24273 20.6373 9.97018C20.7187 10.0292 21.1007 10.3034 21.17 10.325L21.1594 10.3728C21.2201 10.4654 21.6492 10.9372 21.7218 10.9642C22.3321 11.6779 22.772 12.5211 23.008 13.4299C23.0565 13.6126 23.219 14.6009 23.2828 14.6622L23.2305 14.6952C23.215 14.8529 23.215 15.2448 23.2371 15.4013C23.0885 16.409 22.9422 17.2645 22.3537 18.121C22.2848 18.2212 21.8031 18.9636 21.7729 19.0505L21.741 19.0284C21.6095 19.1024 21.3317 19.446 21.1778 19.579C20.9549 19.7842 20.4935 20.1698 20.2061 20.2659C20.0972 20.2044 19.7048 19.3359 19.7463 19.2004C19.9105 19.0339 20.068 18.8734 20.2399 18.7146L20.2915 18.719C20.4294 18.6612 20.7226 18.3011 20.8291 18.1773C20.8483 18.1617 20.8667 18.1451 20.8841 18.1275C20.9469 18.0648 21.1178 17.7962 21.1806 17.7066C21.6789 16.9965 21.9265 16.2496 21.9409 15.3746C21.9872 15.291 21.9723 14.7267 21.9357 14.623C21.8473 13.9829 21.9584 14.1076 21.6926 13.3523C21.6023 13.0719 21.477 12.8041 21.3196 12.5551C21.1878 12.389 20.9874 11.923 20.7956 11.8368L20.7924 11.7865C20.613 11.5852 20.4558 11.4297 20.2368 11.2726C19.406 10.5381 18.652 10.2685 17.5845 10.1591C17.4577 10.1284 16.7367 10.1243 16.6335 10.1802C16.0318 10.2104 15.4342 10.2828 14.9101 10.6053C14.6196 10.784 14.1323 11.019 13.9826 11.3404L13.9307 11.3056C13.7683 11.3693 13.5374 11.6436 13.4237 11.7786L13.4274 11.8315C12.8822 12.2057 12.2207 13.8965 12.2777 14.5657C12.3066 14.5993 12.315 14.6166 12.3558 14.6323C12.27 14.6861 12.2705 14.6652 12.241 14.7686C12.2079 14.8844 12.211 15.2741 12.2525 15.3824C12.3082 16.2044 12.5027 16.8903 12.9567 17.5861C13.0696 17.7592 13.156 17.9474 13.3191 18.0808L13.3414 18.0996C13.3567 18.1114 13.372 18.1232 13.3873 18.135C13.3964 18.2718 13.789 18.6497 13.9097 18.7578C13.947 18.756 13.9426 18.7641 13.9585 18.7468C14.0921 18.9032 14.3783 19.0621 14.5686 19.1319C14.4336 19.4533 14.1779 19.9152 14.0197 20.2504C13.6455 20.1418 13.3577 19.854 13.0335 19.6237C12.9008 19.4479 12.6384 19.1876 12.4814 19.0327C12.1041 18.4691 11.6559 18.0288 11.4011 17.2843C11.213 16.735 11.083 16.0436 10.9524 15.4752C10.9332 15.3914 10.7802 15.3879 10.6914 15.3745L10.9479 15.3576C10.9817 15.2286 10.9719 14.7198 10.9569 14.5786C11.1215 13.1402 11.5582 12.0135 12.5195 10.9433C12.6734 10.8054 12.9326 10.5311 13.0492 10.3642C13.1345 10.3285 13.3583 10.1059 13.468 10.0275C14.5588 9.24757 15.3709 9.08793 16.652 8.90361C16.7635 8.91692 17.3961 8.92275 17.4857 8.89648Z" fill="#A3AEB7"/>
<path d="M16.6736 24.0923L16.711 24.1313C16.9091 24.1373 17.1427 24.1263 17.3411 24.1072C17.4349 24.0982 17.4154 24.098 17.4689 24.0254C17.6158 24.1599 18.0753 24.1561 18.3125 24.2552C18.6688 24.4039 18.8697 24.5431 19.1603 24.7928L19.1749 24.8212C19.3572 25.1732 19.6711 25.5318 19.7172 25.9395C19.7647 26.1051 19.7732 26.3608 19.8154 26.482C19.8243 26.8631 19.5558 27.4815 19.326 27.7908C18.9509 28.2979 18.3635 28.5742 17.7488 28.6566C16.0099 28.8897 14.5095 28.3364 14.2812 26.4152C14.3087 26.3103 14.3383 26.0905 14.3574 25.9753L14.4202 25.8358C14.5036 25.6729 14.6008 25.5872 14.6763 25.3872C14.7934 25.1163 15.0054 24.9364 15.0442 24.7268C15.2836 24.4026 15.9512 24.2308 16.336 24.1446C16.4708 24.1144 16.553 24.1644 16.6736 24.0923Z" fill="#563986"/>
<path d="M16.6736 24.0923L16.711 24.1313C16.9091 24.1373 17.1427 24.1263 17.3411 24.1072C17.4349 24.0982 17.4154 24.098 17.4689 24.0254C17.6158 24.1599 18.0753 24.1561 18.3125 24.2552C18.6688 24.4039 18.8697 24.5431 19.1603 24.7928L19.1749 24.8212C19.3572 25.1732 19.6711 25.5318 19.7172 25.9395C18.5611 25.9543 17.4049 25.9603 16.2488 25.9577C15.6381 25.9582 14.9587 25.9364 14.3574 25.9753L14.4202 25.8358C14.5036 25.6729 14.6008 25.5872 14.6763 25.3872C14.7934 25.1163 15.0054 24.9364 15.0442 24.7268C15.2836 24.4026 15.9512 24.2308 16.3361 24.1446C16.4708 24.1144 16.553 24.1644 16.6736 24.0923Z" fill="#C2AEE2"/>
<path d="M16.722 19.8154L16.7507 19.8672C16.9129 19.9123 17.2383 19.8859 17.4201 19.8789C17.6523 19.8778 17.9375 19.8689 18.1653 19.8803C18.2353 20.0351 18.6222 20.8548 18.6297 20.9466C18.2005 21.1356 17.6538 20.9847 17.4444 21.1932C17.4225 21.1504 17.4251 21.1515 17.389 21.1202C17.2335 21.1024 16.8318 21.0767 16.6943 21.1352C16.5743 21.0357 15.8542 21.037 15.5117 20.9223C15.6815 20.5676 15.8645 20.2192 16.0601 19.878C16.2313 19.8781 16.6102 19.9073 16.722 19.8154Z" fill="#A3AEB7"/>
<path d="M20.2827 24.4697C20.3975 24.6626 21.0071 25.9955 21.0055 26.156C20.6988 26.2647 20.0407 26.3272 19.8153 26.482C19.773 26.3609 19.7645 26.1052 19.717 25.9396C19.6709 25.5318 19.357 25.1733 19.1747 24.8213L19.1602 24.7929C19.6306 24.6564 19.7291 24.5853 20.2827 24.4697Z" fill="#A3AEB7"/>
<path d="M13.1631 26.1022C13.3888 25.6116 13.6154 25.1222 13.8327 24.6275C13.8705 24.5417 13.8704 24.5186 13.9397 24.4941C14.2114 24.5437 14.8256 24.718 15.0442 24.7267C15.0054 24.9363 14.7934 25.1162 14.6763 25.3871C14.6008 25.5871 14.5035 25.6728 14.4201 25.8357L14.3574 25.9752C14.3382 26.0904 14.3087 26.3102 14.2812 26.4151C13.9466 26.3696 13.4889 26.2134 13.1631 26.1022Z" fill="#A3AEB7"/>
<path d="M14.4203 25.8358C14.3473 25.6794 14.5241 25.4348 14.6765 25.3872C14.601 25.5872 14.5037 25.6729 14.4203 25.8358Z" fill="#7A7CA0"/>
<path d="M11.419 23.2183C11.679 23.39 12.2821 23.6647 12.3864 23.8367C12.2879 24.0783 11.7709 25.4047 11.6362 25.4724L11.6295 25.4554C11.3225 25.346 11.2672 25.257 11.0474 25.02C11.0475 25.0135 11.2051 24.7246 11.2283 24.6636C11.3913 24.2345 11.4075 23.7417 11.3651 23.2926L11.419 23.2183Z" fill="#A3AEB7"/>
<path d="M16.7278 18.484C16.6794 18.2847 17.0084 17.7854 17.1244 17.5562L17.4967 18.4504C17.3893 18.9191 17.4773 19.3743 17.4202 19.879C17.2383 19.8859 16.913 19.9123 16.7508 19.8672L16.7221 19.8155C16.6062 19.3604 16.6796 18.9448 16.7278 18.484Z" fill="#C8CED4"/>
<path d="M16.8086 17.4316C16.9535 17.4327 17.1887 17.427 17.3241 17.4525L17.1781 17.585C17.0374 17.5892 17.0297 17.469 16.8086 17.4316Z" fill="#7A7CA0"/>
<path d="M28.9374 14.2046C29.7824 14.255 30.9188 15.1916 30.9469 16.0704C31.053 16.4582 30.9941 16.5852 30.9133 16.9472C30.6178 18.2695 29.6249 18.7664 28.3787 18.7699C28.3066 18.7391 27.578 18.7521 27.411 18.7227C27.0585 18.6607 26.8678 18.4899 26.5537 18.387L26.5291 18.3792C25.6749 17.7851 25.4279 17.0382 25.5492 16.0267C25.6339 15.747 25.6286 15.6583 25.7614 15.371C24.9236 15.3973 24.0905 15.3643 23.2372 15.4014C23.2151 15.245 23.2151 14.853 23.2306 14.6953L23.2829 14.6623C24.1632 14.5502 25.4168 14.737 26.3145 14.5779C26.4302 14.5574 26.8052 14.3341 27.0338 14.2632C27.0864 14.2732 27.7096 14.2256 27.8319 14.2221C28.1973 14.2115 28.57 14.2075 28.9374 14.2046Z" fill="#3889CF"/>
<path d="M28.9374 14.2046C29.7824 14.255 30.9188 15.1916 30.9469 16.0704C29.1878 16.0152 27.2884 16.1324 25.5492 16.0267C25.6339 15.747 25.6286 15.6583 25.7614 15.371C24.9236 15.3973 24.0905 15.3643 23.2372 15.4014C23.2151 15.245 23.2151 14.853 23.2306 14.6953L23.2829 14.6623C24.1632 14.5502 25.4168 14.737 26.3145 14.5779C26.4302 14.5574 26.8052 14.3341 27.0338 14.2632C27.0864 14.2732 27.7096 14.2256 27.8319 14.2221C28.1973 14.2115 28.57 14.2075 28.9374 14.2046Z" fill="#B7D6EB"/>
<path d="M24.1728 21.585C24.3274 21.5645 24.4893 21.4722 24.6303 21.3994C25.3234 21.4764 26.0271 21.4193 26.7198 21.5641C26.7767 21.576 26.9152 21.5937 26.9686 21.5934C27.6368 22.1094 27.9879 22.4108 28.2176 23.2843C28.3675 23.782 28.1717 24.4039 27.9332 24.8473C27.6674 25.3462 27.2148 25.7195 26.6744 25.8854C26.0266 26.0797 24.6262 26.1024 24.0092 25.7678C23.7032 25.6018 23.4334 25.3312 23.2111 25.0678C23.0373 25.2768 22.7691 25.344 22.5114 25.4376C22.5014 25.428 22.4914 25.4184 22.4813 25.4089C22.411 25.1818 21.8187 23.9985 21.843 23.845C22.0252 23.6924 22.1846 23.5642 22.3864 23.4368C22.513 23.3568 22.6587 23.3087 22.7641 23.2152C23.047 22.6601 23.1296 22.4331 23.5779 21.9904C23.7344 21.8391 23.9862 21.6939 24.1728 21.585Z" fill="#B41F2E"/>
<path d="M24.1728 21.585C24.3275 21.5645 24.4893 21.4722 24.6303 21.3994C25.3235 21.4764 26.0271 21.4193 26.7198 21.5641C26.7767 21.576 26.9153 21.5937 26.9687 21.5934C27.6368 22.1094 27.9879 22.4108 28.2177 23.2843C26.5151 23.2844 24.4808 23.3442 22.8052 23.2691L22.7642 23.2152C23.047 22.6601 23.1297 22.4331 23.5779 21.9904C23.7344 21.8391 23.9862 21.6939 24.1728 21.585Z" fill="#F0A2B0"/>
<path d="M22.7641 23.2148L22.8052 23.2687C22.7061 23.8482 22.8938 24.5767 23.2111 25.0675C23.0373 25.2765 22.7691 25.3436 22.5114 25.4373C22.5014 25.4277 22.4914 25.4181 22.4813 25.4085C22.411 25.1815 21.8187 23.9982 21.843 23.8447C22.0252 23.6921 22.1846 23.5639 22.3864 23.4365C22.513 23.3565 22.6587 23.3084 22.7641 23.2148Z" fill="#A3AEB7"/>
<path d="M9.53432 21.4595C9.68436 21.4606 9.82326 21.4501 9.96018 21.5118C10.0881 21.7428 10.4996 21.851 10.6811 22.0009C11.0625 22.4644 11.259 22.6231 11.419 23.2182L11.3651 23.2925C11.4075 23.7416 11.3913 24.2345 11.2283 24.6635C11.2051 24.7246 11.0475 25.0135 11.0474 25.0199C10.9771 25.044 10.4832 25.5792 10.2474 25.7179C9.56205 26.1031 8.55435 26.0669 7.80802 25.953C6.62531 25.7724 5.71073 24.5058 5.98214 23.3132C6.1816 22.4042 6.51814 21.9784 7.36329 21.5927C7.50547 21.5311 8.26704 21.4824 8.45513 21.4553C8.70978 21.4186 9.31522 21.5316 9.53432 21.4595Z" fill="#55853D"/>
<path d="M9.53411 21.4595C9.68415 21.4606 9.82305 21.4501 9.95997 21.5118C10.0879 21.7428 10.4993 21.851 10.6809 22.0009C11.0623 22.4644 11.2588 22.6231 11.4188 23.2182L11.3649 23.2925C10.2701 23.2802 9.17525 23.2774 8.08042 23.284C7.47078 23.2848 6.57693 23.2606 5.98193 23.3132C6.18139 22.4042 6.51793 21.9784 7.36308 21.5927C7.50526 21.5311 8.26683 21.4824 8.45493 21.4553C8.70958 21.4186 9.31501 21.5316 9.53411 21.4595Z" fill="#C0E0AE"/>
<path d="M14.4637 3.46901C14.6735 3.30934 14.763 2.93197 14.9703 2.73496C15.6588 2.0803 16.7383 2.08838 17.6255 2.16821C18.3121 2.23302 18.7734 2.40075 19.2183 2.93713C19.3753 3.12646 19.5129 3.34064 19.6659 3.50856C19.6854 3.66185 19.7027 3.81539 19.7179 3.96917C19.8857 4.44925 19.6141 5.02845 19.6229 5.32093C19.2619 6.11721 18.2999 6.73994 17.4278 6.7464C17.3284 6.70208 16.7806 6.72308 16.6549 6.73414C16.1838 6.71009 15.2796 6.42861 14.9857 6.03377C14.8554 5.85882 14.6132 5.41359 14.4753 5.34193C14.5401 5.24368 14.1716 4.39953 14.3482 4.0441C14.4187 3.99163 14.5932 3.99319 14.6911 3.98626C14.5853 3.98954 14.5085 4.00564 14.4249 3.94807C14.3987 3.87823 14.4634 3.64319 14.4637 3.46901Z" fill="#563986"/>
<path d="M14.464 3.46901C14.6738 3.30934 14.7633 2.93197 14.9706 2.73496C15.6591 2.0803 16.7386 2.08838 17.6258 2.16821C18.3124 2.23302 18.7737 2.40075 19.2186 2.93713C19.3756 3.12646 19.5132 3.34064 19.6662 3.50856C19.6857 3.66185 19.703 3.81539 19.7182 3.96917C18.0696 4.00077 16.3208 3.93024 14.6914 3.98626C14.5856 3.98954 14.5088 4.00564 14.4252 3.94807C14.399 3.87823 14.4637 3.64319 14.464 3.46901Z" fill="#C2AEE2"/>
<path d="M3.29324 16.043C3.36331 15.5737 3.39773 15.3576 3.71996 14.9714C4.14962 14.4565 4.53363 14.2783 5.19234 14.2159C5.58496 14.2007 5.97812 14.2051 6.37035 14.229C6.57551 14.2418 7.03154 14.2884 7.21543 14.2794C7.48671 14.5206 7.5306 14.5383 7.88785 14.608C7.97474 14.8698 8.29979 15.1377 8.45171 15.4136C8.52903 15.6241 8.55347 15.725 8.59896 15.9445C8.72872 16.7877 8.56417 17.8739 7.74007 18.3255L7.71919 18.3335C7.52659 18.4092 7.32968 18.5718 7.15566 18.6318C6.8286 18.7444 6.31804 18.7019 5.99597 18.775C5.17879 18.8387 4.31486 18.5895 3.75514 17.9651C3.27673 17.4313 3.24385 16.7204 3.29324 16.043Z" fill="#3889CF"/>
<path d="M3.29297 16.043C3.36304 15.5737 3.39746 15.3576 3.71969 14.9714C4.14935 14.4565 4.53336 14.2783 5.19206 14.2159C5.58469 14.2007 5.97785 14.2051 6.37007 14.229C6.57523 14.2418 7.03126 14.2884 7.21515 14.2794C7.48643 14.5206 7.53033 14.5383 7.88757 14.608C7.97447 14.8698 8.29951 15.1377 8.45143 15.4136C8.52875 15.6241 8.5532 15.725 8.59869 15.9445L8.55747 16.0142C8.19549 16.0827 7.0631 16.0623 6.63592 16.0611C5.53126 16.058 4.39416 16.0755 3.29297 16.043Z" fill="#B3D7EF"/>
<path d="M9.29373 6.1709C9.88976 6.35969 10.2666 6.47044 10.7341 6.91994C10.7858 6.9697 10.9566 7.13322 11.0103 7.1671C11.1248 7.34132 11.2624 7.53359 11.3155 7.73534C11.3431 7.84035 11.3473 7.94928 11.382 8.04783C11.4069 8.30993 11.4367 8.56395 11.4226 8.82738C11.3635 8.97331 11.2198 9.41364 11.1824 9.57864C10.1338 10.9403 9.56014 10.7549 7.97954 10.7956C7.24053 10.6161 7.00264 10.4091 6.45495 9.94739L6.4089 9.96117C6.37856 9.84121 6.26904 9.66123 6.21434 9.53843C5.95237 8.95015 5.90513 8.61712 6.0279 8.00463C6.19947 6.92978 7.08371 6.28462 8.13126 6.2299C8.40456 6.21562 9.08129 6.27237 9.29373 6.1709Z" fill="#B41F2E"/>
<path d="M9.29415 6.1709C9.89018 6.35969 10.267 6.47044 10.7345 6.91994C10.7862 6.9697 10.957 7.13322 11.0107 7.1671C11.1252 7.34132 11.2628 7.53359 11.3159 7.73534C11.3435 7.84035 11.3477 7.94928 11.3824 8.04783C10.7583 8.02875 6.29178 8.10941 6.02832 8.00463C6.19989 6.92978 7.08412 6.28462 8.13168 6.2299C8.40498 6.21562 9.0817 6.27237 9.29415 6.1709Z" fill="#F0A2B0"/>
<path d="M25.3606 6.23402C26.2317 6.21064 26.8851 6.24575 27.5939 6.85698C27.8571 7.08404 28.0655 7.71402 28.2394 8.02688C28.2524 8.1148 28.2685 8.24701 28.2778 8.33135C28.3168 8.68383 28.0002 9.6954 27.7924 9.94121L27.7585 9.93346C27.1204 10.4595 27.0269 10.6215 26.1736 10.7825C24.8361 10.8133 23.7655 10.8609 23.0454 9.55521C22.9419 9.30503 22.8699 9.05936 22.7725 8.81001C22.7773 8.53485 22.7731 8.29292 22.8321 8.02227C22.9154 7.7493 23.0747 7.42359 23.202 7.16285C23.4986 6.84731 24.1823 6.40281 24.6134 6.32092C24.9101 6.26457 25.0787 6.27311 25.3606 6.23402Z" fill="#55853D"/>
<path d="M25.3605 6.23402C26.2316 6.21064 26.885 6.24575 27.5938 6.85698C27.857 7.08404 28.0654 7.71402 28.2393 8.02688C27.7324 8.06504 23.1041 8.09701 22.832 8.02227C22.9153 7.7493 23.0747 7.42359 23.2019 7.16285C23.4985 6.84731 24.1822 6.40281 24.6133 6.32092C24.91 6.26457 25.0786 6.27311 25.3605 6.23402Z" fill="#C0E0AE"/>
<path d="M9.7025 29.7825C9.85992 29.8237 11.4241 29.8498 11.5775 29.806C12.4422 29.7723 12.9186 29.6488 13.6287 30.1626C13.7314 30.3779 13.7577 30.5179 13.8051 30.7492C13.6522 31.1759 13.4015 31.4069 12.936 31.4475C11.5117 31.5719 10.047 31.4698 8.61403 31.4945C8.35183 31.499 7.75587 31.4162 7.57874 31.2196C7.36195 30.9789 7.39223 30.5465 7.41923 30.2359C7.71582 29.8496 8.03447 29.8135 8.49699 29.7925C8.89717 29.7744 9.30196 29.7819 9.7025 29.7825Z" fill="#563986"/>
<path d="M24.4689 29.8105C25.1836 29.7927 26.0519 29.6773 26.6642 30.0733C26.7965 30.4965 26.9143 30.9808 26.4824 31.2741C26.3907 31.3363 26.2799 31.4011 26.1694 31.4313C25.3217 31.5726 24.4332 31.4765 23.5774 31.4814C22.7646 31.4833 21.991 31.5528 21.19 31.4586C21.0229 31.4389 20.7285 31.2747 20.5741 31.1913C20.4242 30.7631 20.4291 30.719 20.4904 30.2601C20.8138 29.9208 20.9849 29.8108 21.4953 29.8024C21.8826 29.796 22.2937 29.8098 22.682 29.8171C23.2593 29.8197 23.898 29.8348 24.4689 29.8105Z" fill="#563986"/>
<path d="M19.6662 3.50879C21.3549 3.79958 23.1221 4.78386 24.4929 5.78802C24.9033 6.08865 24.7021 6.24203 25.3607 6.23434C25.0788 6.27343 24.9102 6.26489 24.6135 6.32124C24.1824 6.40313 23.4987 6.84763 23.2021 7.16317C22.9833 6.89606 22.3881 6.56098 22.0817 6.36566C21.332 5.88776 20.4463 5.63394 19.6233 5.32115C19.6144 5.02867 19.8861 4.44947 19.7182 3.96939C19.7031 3.81561 19.6857 3.66207 19.6662 3.50879Z" fill="#A3AEB7"/>
<path d="M14.4638 3.46924C14.4636 3.64342 14.3989 3.87846 14.425 3.94829C14.5087 4.00587 14.5855 3.98977 14.6913 3.98649C14.5933 3.99341 14.4188 3.99186 14.3483 4.04433C14.1718 4.39975 14.5403 5.2439 14.4755 5.34216C13.5948 5.73164 11.619 6.4244 11.0105 7.16745C10.9568 7.13356 10.786 6.97004 10.7343 6.92028C10.2668 6.47078 9.88997 6.36003 9.29395 6.17124C10.3104 5.11626 11.9928 4.28695 13.356 3.7814C13.7113 3.64965 14.1336 3.67307 14.4638 3.46924Z" fill="#A3AEB7"/>
<path d="M6.40925 9.96153L6.4553 9.94775C7.00299 10.4095 7.24088 10.6165 7.97989 10.7959C7.73093 11.8027 7.32009 12.7038 7.26924 13.7548C7.26112 13.9223 7.21531 14.1135 7.21547 14.2796C7.03158 14.2887 6.57555 14.242 6.37039 14.2293C5.97816 14.2053 5.58501 14.2009 5.19238 14.2161L5.29925 14.1772C5.35948 14.1031 5.36468 13.995 5.36753 13.9014C5.40801 12.5734 5.92784 11.1746 6.40925 9.96153Z" fill="#A3AEB7"/>
<path d="M26.1738 10.7826C27.0271 10.6217 27.1206 10.4596 27.7587 9.93359L27.7926 9.94135C27.8772 10.4602 28.2372 11.024 28.3829 11.5215C28.5339 12.0371 28.6031 12.6101 28.7569 13.1296C28.8289 13.3768 28.8882 14.0613 28.9376 14.2045C28.5702 14.2075 28.1975 14.2114 27.8321 14.222C27.7097 14.2256 27.0866 14.2731 27.034 14.2631C27.0533 13.8316 26.7255 12.3391 26.5765 11.8873C26.4631 11.5431 26.2607 11.2293 26.1738 10.7826Z" fill="#A3AEB7"/>
<path d="M26.5291 18.3789L26.5536 18.3867C26.8677 18.4896 27.0584 18.6604 27.411 18.7224C27.5779 18.7518 28.3065 18.7388 28.3786 18.7696C28.0726 18.928 27.8736 20.0227 27.6361 20.4124C27.5122 20.6158 27.0745 21.2356 27.0272 21.3834C27.0051 21.4525 26.9857 21.5225 26.9688 21.5931C26.9154 21.5934 26.7768 21.5756 26.7199 21.5637C26.0272 21.419 25.3236 21.476 24.6304 21.3991C24.7173 21.3778 24.8023 21.356 24.854 21.2773C25.324 20.5617 25.8027 19.8892 26.142 19.0957C26.236 18.8759 26.3883 18.5621 26.5291 18.3789Z" fill="#A3AEB7"/>
<path d="M5.99609 18.7753C6.31816 18.7021 6.82872 18.7446 7.15578 18.632C7.3298 18.5721 7.52671 18.4094 7.71931 18.3337L7.74018 18.3257C7.84059 19.0831 8.97421 20.9091 9.53439 21.4597C9.31529 21.5318 8.70986 21.4188 8.45521 21.4555C8.26711 21.4827 7.50554 21.5314 7.36336 21.5929C7.26421 21.4278 7.10404 21.2849 7.01463 21.1301C6.67302 20.5385 6.05324 19.4409 5.99609 18.7753Z" fill="#A3AEB7"/>
<path d="M12.4814 19.0327C12.6384 19.1877 12.9008 19.448 13.0336 19.6238C12.3636 20.254 11.309 21.3219 10.6809 22.0009C10.4993 21.851 10.0879 21.7428 9.95996 21.5118C9.9851 21.4919 9.99229 21.4853 10.0133 21.4612C10.3439 21.0806 10.7433 20.7037 11.109 20.353C11.5064 19.9719 12.0655 19.3759 12.4814 19.0327Z" fill="#C8CED4"/>
<path d="M21.1777 19.579C21.3316 19.446 21.6094 19.1024 21.7409 19.0283L21.7728 19.0505C21.9239 19.2941 22.2909 19.6382 22.4969 19.8529C23.053 20.4327 23.6722 20.9567 24.1728 21.5848C23.9862 21.6937 23.7343 21.8389 23.5778 21.9901C23.5738 21.9878 23.5698 21.9855 23.5658 21.983C23.5592 21.979 23.5528 21.9746 23.5461 21.9707C23.3939 21.8819 21.3126 19.7797 21.1777 19.579Z" fill="#C8CED4"/>
<path d="M10.9569 14.5786C10.972 14.7198 10.9818 15.2286 10.9479 15.3576L10.6914 15.3745C10.4099 15.3813 8.54852 15.3397 8.45156 15.4135C8.29963 15.1376 7.97459 14.8698 7.8877 14.608C8.40339 14.6344 10.5626 14.7014 10.9569 14.5786Z" fill="#C8CED4"/>
<path d="M16.6553 6.73401C16.781 6.72294 17.3288 6.70194 17.4282 6.74626C17.4832 7.06713 17.4806 8.48634 17.486 8.89636C17.3964 8.92263 16.7638 8.9168 16.6523 8.90348C16.7074 8.40581 16.6741 7.25821 16.6553 6.73401Z" fill="#C8CED4"/>
<path d="M22.7726 8.81006C22.8701 9.05941 22.9421 9.30508 23.0456 9.55526C22.7329 9.91767 22.4238 10.2187 22.0842 10.5552C21.9625 10.6758 21.8487 10.8325 21.7221 10.9642C21.6495 10.9372 21.2204 10.4653 21.1597 10.3727L21.1703 10.325C21.2628 10.2119 21.4299 10.0628 21.5412 9.9447C21.7723 9.69943 22.0211 9.40045 22.2667 9.17588C22.4086 9.04602 22.5806 8.98832 22.7499 8.83146L22.7726 8.81006Z" fill="#C8CED4"/>
<path d="M11.4229 8.82764C11.6971 9.06171 11.9184 9.24431 12.1737 9.50691C12.4617 9.80307 12.716 10.1221 13.0493 10.3643C12.9327 10.5313 12.6734 10.8055 12.5196 10.9435C12.2859 10.7342 11.3153 9.79661 11.1826 9.5789C11.22 9.41389 11.3637 8.97356 11.4229 8.82764Z" fill="#C8CED4"/>
</svg>
