<svg width="36" height="32" viewBox="0 0 36 32" fill="none" xmlns="http://www.w3.org/2000/svg">
<path d="M4.19326 6.59213C4.12519 6.43071 3.64763 6.11812 3.55293 5.92954C3.17925 5.18854 3.2615 4.00082 3.43659 3.21182C3.53489 2.76881 3.90484 2.64783 4.29035 2.77671C5.30557 3.1161 6.23101 3.30621 7.28092 3.49732C8.1182 3.64969 8.77989 3.74955 9.62632 3.84126C11.0889 4.01158 12.5581 4.11947 14.0299 4.16458C14.565 4.17957 15.3995 4.11583 15.8974 4.18038C17.0185 4.32569 17.9804 4.19379 19.0695 4.19678C22.4085 4.20589 25.7221 3.92358 28.9903 3.22464C29.5219 3.11212 30.0145 2.8946 30.5369 2.7537C31.8259 2.45888 31.4448 4.86404 31.4302 5.54381C31.4199 6.02563 30.6915 6.35611 30.6532 6.65939C30.833 7.1074 30.8851 7.79737 30.6935 8.24245C30.6651 8.30766 30.635 8.37215 30.6034 8.43586C30.4034 8.55883 29.9568 8.87736 29.7853 8.96207C29.3707 9.1669 28.6114 9.3114 28.1507 9.45453C28.0575 9.4835 27.8695 9.4867 27.7475 9.51738L27.659 9.61717C27.6691 10.2901 27.7569 10.8703 27.8072 11.5333C27.8431 12.0065 27.6129 12.3366 27.6868 12.8333C27.9719 12.6855 28.5615 12.7858 28.8836 12.7592C30.4031 12.6334 31.7543 13.1652 31.6622 14.9486C31.4435 15.1891 31.3371 15.4085 31.1545 15.6475C30.4473 16.5728 28.6704 16.1476 27.6921 16.2401L27.6919 16.26C27.6922 16.4184 27.7413 16.4236 27.7019 16.6031C27.6604 16.7924 27.6598 17.0088 27.675 17.2028C27.6826 17.4964 27.7972 17.7262 27.7998 18.0259C27.8208 20.4116 27.8087 22.7984 27.8065 25.1842C27.8062 25.5587 27.491 26.6111 27.7475 26.8827L27.7882 26.9597L27.7678 27.0035C27.6776 27.0246 27.6654 27.023 27.574 27.0063C26.5652 26.9638 25.4176 27.0528 24.4246 27.0093L24.3874 26.9388C24.4185 26.8906 24.4345 26.792 24.4338 26.7352C24.4203 25.4836 24.4223 24.2264 24.422 22.9753L24.4189 16.2229C23.6526 16.2884 22.2351 16.2471 21.4277 16.2475L15.782 16.2483L12.2126 16.2467C11.8917 16.2462 10.8006 16.2621 10.5453 16.2234L10.5154 16.2186L10.4669 16.2643C10.6304 16.7765 10.5713 19.2287 10.571 19.9203L10.5623 25.269C10.5595 25.626 10.5555 25.9826 10.548 26.3396C10.5442 26.5232 10.5027 26.7316 10.5234 26.9054L10.5362 26.9848C10.4596 27.0313 10.431 27.01 10.3252 27.0023C10.0123 27.0029 7.18507 27.0437 7.10767 27.0044L7.11004 26.9325C7.20365 26.685 7.14183 24.8978 7.14743 24.4879C7.18476 21.7489 7.07358 18.9636 7.1651 16.229C6.98523 16.2456 6.76908 16.2411 6.58616 16.2424L5.51858 16.2479C4.81604 16.2499 4.22782 16.2994 3.67358 15.7548C3.01156 15.1806 3.03634 13.8465 3.68341 13.2715C4.43383 12.6046 6.22734 12.7427 7.16448 12.7726C7.1381 12.376 7.17879 11.941 7.14728 11.5523C7.09763 10.9406 7.14893 10.2263 7.05544 9.63344C7.09831 9.57241 7.10547 9.56637 7.12581 9.49594C7.09047 9.469 6.5236 9.4205 6.37564 9.38824C5.59588 9.21817 4.68024 9.0969 4.19923 8.36502C3.82825 7.80061 4.07402 7.14921 4.19326 6.59213ZM21.4977 9.96675C20.9013 9.97419 20.0956 9.99307 19.5089 9.94728C19.3522 9.96638 19.0762 9.98632 18.9896 10.1282C19.0329 10.3509 19.0266 11.0459 19.0274 11.2981L19.0321 11.3292C19.0677 11.5583 19.1697 11.6722 19.1658 11.8689L19.1655 11.8909C19.1579 12.2548 19.0192 12.3612 19.0484 12.7976C19.4093 12.716 23.9981 12.7201 24.3871 12.7965C24.4822 12.6682 24.3935 10.5257 24.4339 10.1522L24.4373 10.1217C24.3872 9.80168 24.1721 9.79226 23.8991 9.79518C23.2131 10.038 22.2573 9.94242 21.4977 9.96675ZM10.4546 12.7249L10.4963 12.8058C10.5797 12.807 10.9445 12.7556 11.1494 12.7545L14.401 12.7561C14.6735 12.7562 15.539 12.7432 15.761 12.783C15.8821 12.5869 15.5924 11.8609 15.7353 11.4784C15.8291 11.2274 15.7755 10.0926 15.4665 9.94429C14.72 9.97624 13.9725 9.98125 13.2256 9.95938C12.7182 9.95776 11.6512 9.98374 11.2246 9.83699C11.1002 9.79101 10.5714 9.70509 10.4625 9.76339C10.6162 10.281 10.658 12.2429 10.4546 12.7249Z" fill="#D52F3E"/>
<path d="M4.19306 6.59213C4.12499 6.43071 3.64743 6.11812 3.55274 5.92954C3.17905 5.18854 3.2613 4.00082 3.43639 3.21182C3.53469 2.76881 3.90465 2.64783 4.29015 2.77671C5.30537 3.1161 6.23081 3.30621 7.28072 3.49732C8.118 3.64969 8.7797 3.74955 9.62612 3.84126C11.0887 4.01158 12.5579 4.11947 14.0297 4.16458C14.5648 4.17957 15.3993 4.11583 15.8972 4.18038C17.0183 4.32569 17.9802 4.19379 19.0693 4.19678C22.4083 4.20589 25.7219 3.92358 28.9901 3.22464C29.5217 3.11212 30.0143 2.8946 30.5367 2.7537C31.8257 2.45888 31.4446 4.86404 31.43 5.54381C31.4197 6.02563 30.6913 6.35611 30.653 6.65939L30.4851 6.4831C29.8831 6.77496 29.1599 6.81018 28.5007 6.92115C27.0027 7.17332 25.5253 7.22751 24.0117 7.30563C21.9728 7.42655 19.9305 7.47959 17.888 7.46472C15.4688 7.46531 13.0613 7.45912 10.646 7.29536C9.61563 7.22552 8.59497 7.21886 7.56833 7.07872C6.59417 6.94572 5.60636 6.87038 4.64872 6.63407C4.51682 6.60221 4.3841 6.53968 4.25155 6.51906L4.19306 6.59213Z" fill="#272A2D"/>
<path d="M10.3252 27.0022C10.2345 26.7569 10.2709 25.3917 10.2707 25.0459L10.2717 21.8601L10.271 18.3651C10.2706 18.0796 10.2425 16.258 10.3142 16.083L10.3662 16.0679C10.4632 16.1592 10.4348 16.1226 10.4668 16.2642C10.6304 16.7764 10.5713 19.2285 10.571 19.9202L10.5623 25.2689C10.5595 25.6259 10.5555 25.9825 10.548 26.3395C10.5442 26.5231 10.5027 26.7315 10.5233 26.9053L10.5362 26.9847C10.4596 27.0312 10.431 27.0099 10.3252 27.0022Z" fill="#E05C6C"/>
<path d="M27.537 17.2207C27.5797 16.9614 27.5543 16.9612 27.6187 16.6812C27.6201 16.7987 27.6019 17.1321 27.6602 17.1986L27.6747 17.2028C27.6824 17.4964 27.7969 17.7262 27.7995 18.0259C27.8205 20.4116 27.8085 22.7985 27.8063 25.1842C27.806 25.5587 27.4908 26.6112 27.7473 26.8827L27.7879 26.9597L27.7676 27.0035C27.6773 27.0246 27.6652 27.023 27.5737 27.0063C27.5604 26.7996 27.6148 26.5896 27.597 26.3673C27.4674 24.7442 27.5084 23.0833 27.5093 21.4554C27.5034 20.0438 27.5126 18.6321 27.537 17.2207Z" fill="#E05C6C"/>
<path d="M27.5389 9.64808C27.5271 9.46989 27.5069 9.42338 27.5932 9.27798L27.6515 9.27686C27.7251 9.33851 27.7295 9.42285 27.7472 9.5173L27.6587 9.6171C27.6688 10.2901 27.7566 10.8702 27.8069 11.5332C27.8428 12.0064 27.6126 12.3366 27.6865 12.8332C27.6668 12.8777 27.6547 12.8862 27.6237 12.9238L27.5705 12.9217C27.4868 12.7724 27.5362 10.0426 27.5389 9.64808Z" fill="#D84A5D"/>
<path d="M27.5373 17.221C27.5363 17.0258 27.5081 16.2063 27.5891 16.0706L27.6251 16.0635L27.6119 16.1002L27.6765 16.1358L27.6921 16.2404L27.6919 16.2602C27.6922 16.4187 27.7413 16.4239 27.7019 16.6033C27.6604 16.7927 27.6598 17.0091 27.6749 17.2031L27.6604 17.1988C27.6022 17.1324 27.6203 16.799 27.619 16.6814C27.5546 16.9614 27.58 16.9617 27.5373 17.221Z" fill="#D84A5D"/>
<path d="M10.4269 9.61649C10.8724 9.60286 12.7033 9.5758 13.2322 9.6444C13.2529 9.64707 13.2731 9.72929 13.2806 9.76221L13.2257 9.95947C12.7183 9.95785 11.6513 9.98383 11.2246 9.83709C11.1003 9.79111 10.5714 9.70518 10.4626 9.76348C10.6162 10.2811 10.6581 12.243 10.4546 12.725L10.4521 12.8308C10.4005 12.9131 10.414 12.9218 10.3348 12.9545C10.2011 12.749 10.2757 10.0906 10.2707 9.64751L10.3123 9.61018L10.4269 9.61649Z" fill="#E05C6C"/>
<path d="M11.2246 9.83709C11.5223 9.79892 11.8221 9.78003 12.1221 9.7805C12.4404 9.7833 12.9918 9.82013 13.2806 9.76221L13.2257 9.95947C12.7183 9.95785 11.6512 9.98383 11.2246 9.83709Z" fill="#D84A5D"/>
<path d="M21.4062 9.78928C21.4196 9.6786 21.4001 9.67216 21.4687 9.61314C22.4171 9.57693 23.5413 9.60988 24.5061 9.61068C24.4919 9.72641 24.4823 10.0454 24.4372 10.122C24.3871 9.80201 24.172 9.79258 23.899 9.79551C23.213 10.0383 22.2572 9.94275 21.4976 9.96707L21.4062 9.78928Z" fill="#E05C6C"/>
<path d="M21.4062 9.78904C21.9494 9.8437 22.283 9.80447 22.8238 9.77622C23.1283 9.76033 23.6196 9.81872 23.899 9.79526C23.213 10.038 22.2572 9.9425 21.4976 9.96683L21.4062 9.78904Z" fill="#D84A5D"/>
<path d="M15.4662 9.94414L15.4556 9.88634C15.5327 9.81694 15.77 9.80804 15.895 9.78906C15.9111 10.1763 15.9323 12.7765 15.8302 12.9056L15.7887 12.8861L15.7607 12.7828C15.8818 12.5868 15.5921 11.8608 15.735 11.4783C15.8288 11.2273 15.7752 10.0925 15.4662 9.94414Z" fill="#D84A5D"/>
<path d="M19.0275 11.2983L19.0321 11.3294C19.0677 11.5585 19.1698 11.6724 19.1658 11.8691L19.1655 11.8911C19.1579 12.255 19.0192 12.3614 19.0484 12.7978C19.032 12.8865 19.0453 12.8525 18.9822 12.9296L18.9486 12.8859C18.9324 12.5423 18.9068 11.5798 19.0275 11.2983Z" fill="#D84A5D"/>
<path d="M18.9897 10.1285C18.9643 10.0814 18.9503 9.95741 18.9409 9.89862C19.028 9.68471 19.3948 9.73865 19.5089 9.94752C19.3522 9.96662 19.0762 9.98656 18.9897 10.1285Z" fill="#D84A5D"/>
<path d="M27.7474 26.8828C27.9144 26.8831 28.572 27.2991 28.7048 27.4357C29.27 28.0168 29.3794 29.1131 28.7673 29.7109C28.0334 30.4277 27.2198 30.319 26.2721 30.3118C25.2155 30.2764 24.0823 30.5449 23.2675 29.6837C22.6995 29.0833 22.7422 27.9776 23.3603 27.4301C23.59 27.2265 24.077 26.9168 24.3872 26.9389L24.4244 27.0093C25.4174 27.0529 26.5651 26.9639 27.5738 27.0064C27.6653 27.0231 27.6774 27.0247 27.7677 27.0035L27.788 26.9597L27.7474 26.8828Z" fill="#272A2D"/>
<path d="M10.5232 26.9053C10.7196 26.9127 11.2809 27.2385 11.4172 27.3878C12.5933 28.6755 11.6724 30.3477 9.99054 30.3107C9.6564 30.3034 8.93899 30.2918 8.63779 30.3109C7.19064 30.4026 5.7546 30.2999 5.604 28.5156C5.60749 28.1264 5.85848 27.7023 6.1198 27.4383C6.30754 27.2486 6.86794 26.913 7.10991 26.9324L7.10755 27.0042C7.18495 27.0436 10.0121 27.0027 10.3251 27.0022C10.4309 27.0099 10.4595 27.0312 10.5361 26.9847L10.5232 26.9053Z" fill="#272A2D"/>
</svg>
